<?xml version="1.0" encoding="UTF-8"?>
<svg version="1.1" xmlns="http://www.w3.org/2000/svg" width="577" height="433">
<path d="M0,0 L6,0 L6,1 L13,1 L13,2 L18,2 L18,3 L21,3 L21,4 L23,4 L23,5 L25,5 L25,6 L27,6 L27,7 L28,7 L28,8 L30,8 L30,9 L31,9 L31,10 L33,10 L33,11 L34,11 L34,13 L36,13 L36,14 L37,14 L37,15 L38,15 L38,17 L39,17 L39,18 L40,18 L40,19 L41,19 L41,20 L51,20 L51,21 L54,21 L54,22 L56,22 L56,23 L58,23 L58,24 L60,24 L60,25 L62,25 L62,26 L63,26 L63,27 L65,27 L65,28 L66,28 L66,29 L67,29 L67,30 L69,30 L69,31 L70,31 L70,32 L71,32 L71,34 L72,34 L72,35 L73,35 L73,36 L74,36 L74,38 L75,38 L75,39 L76,39 L76,41 L77,41 L77,43 L78,43 L78,46 L79,46 L79,50 L80,50 L80,55 L81,55 L81,63 L80,63 L80,68 L79,68 L79,71 L78,71 L78,74 L77,74 L77,76 L76,76 L76,78 L75,78 L75,79 L74,79 L74,81 L73,81 L73,83 L72,83 L72,84 L71,84 L71,85 L70,85 L70,86 L69,86 L69,87 L68,87 L68,88 L67,88 L67,89 L66,89 L66,90 L64,90 L64,91 L63,91 L63,92 L61,92 L61,93 L58,93 L58,94 L56,94 L56,95 L54,95 L54,96 L52,96 L52,98 L51,98 L51,100 L50,100 L50,101 L49,101 L49,103 L48,103 L48,104 L47,104 L47,105 L46,105 L46,107 L45,107 L45,108 L44,108 L44,109 L43,109 L43,110 L42,110 L42,111 L41,111 L41,112 L40,112 L40,113 L39,113 L39,114 L38,114 L38,115 L36,115 L36,116 L35,116 L35,117 L33,117 L33,118 L32,118 L32,119 L30,119 L30,120 L28,120 L28,121 L25,121 L25,122 L21,122 L21,123 L17,123 L17,124 L1,124 L1,123 L-3,123 L-3,122 L-7,122 L-7,121 L-9,121 L-9,120 L-11,120 L-11,119 L-14,119 L-14,118 L-16,118 L-16,117 L-17,117 L-17,116 L-18,116 L-18,115 L-20,115 L-20,114 L-21,114 L-21,113 L-22,113 L-22,112 L-24,112 L-24,111 L-25,111 L-25,110 L-26,110 L-26,109 L-27,109 L-27,108 L-29,108 L-29,107 L-30,107 L-30,106 L-31,106 L-31,105 L-32,105 L-32,104 L-33,104 L-33,103 L-34,103 L-34,102 L-35,102 L-35,101 L-36,101 L-36,100 L-38,100 L-38,99 L-39,99 L-39,98 L-40,98 L-40,97 L-42,97 L-42,96 L-43,96 L-43,95 L-44,95 L-44,94 L-46,94 L-46,93 L-48,93 L-48,92 L-50,92 L-50,91 L-53,91 L-53,90 L-57,90 L-57,89 L-71,89 L-71,90 L-74,90 L-74,91 L-76,91 L-76,92 L-77,92 L-77,93 L-79,93 L-79,94 L-80,94 L-80,95 L-81,95 L-81,96 L-82,96 L-82,97 L-83,97 L-83,98 L-84,98 L-84,99 L-85,99 L-85,100 L-86,100 L-86,103 L-87,103 L-87,104 L-88,104 L-88,107 L-89,107 L-89,112 L-90,112 L-90,122 L-89,122 L-89,125 L-88,125 L-88,126 L-87,126 L-87,127 L-86,127 L-86,128 L-79,128 L-79,127 L-76,127 L-76,126 L-74,126 L-74,125 L-73,125 L-73,124 L-72,124 L-72,123 L-71,123 L-71,122 L-70,122 L-70,121 L-69,121 L-69,120 L-68,120 L-68,119 L-67,119 L-67,118 L-66,118 L-66,117 L-65,117 L-65,116 L-64,116 L-64,115 L-63,115 L-63,114 L-62,114 L-62,113 L-61,113 L-61,112 L-60,112 L-60,111 L-57,111 L-57,110 L-56,110 L-56,109 L-55,109 L-55,108 L-52,108 L-52,107 L-48,107 L-48,106 L-37,106 L-37,107 L-35,107 L-35,119 L-36,119 L-36,120 L-39,120 L-39,121 L-46,121 L-46,122 L-49,122 L-49,123 L-50,123 L-50,124 L-51,124 L-51,125 L-52,125 L-52,126 L-54,126 L-54,128 L-55,128 L-55,129 L-57,129 L-57,131 L-58,131 L-58,132 L-59,132 L-59,133 L-61,133 L-61,135 L-62,135 L-62,136 L-63,136 L-63,137 L-65,137 L-65,138 L-66,138 L-66,139 L-68,139 L-68,140 L-71,140 L-71,141 L-74,141 L-74,142 L-76,142 L-76,143 L-80,143 L-80,144 L-85,144 L-85,143 L-89,143 L-89,142 L-91,142 L-91,141 L-93,141 L-93,140 L-95,140 L-95,139 L-96,139 L-96,138 L-97,138 L-97,137 L-98,137 L-98,136 L-99,136 L-99,135 L-100,135 L-100,134 L-101,134 L-101,132 L-102,132 L-102,130 L-103,130 L-103,128 L-104,128 L-104,123 L-105,123 L-105,121 L-106,121 L-106,120 L-107,120 L-107,119 L-109,119 L-109,118 L-111,118 L-111,117 L-112,117 L-112,116 L-113,116 L-113,115 L-114,115 L-114,114 L-115,114 L-115,113 L-116,113 L-116,111 L-118,111 L-118,109 L-119,109 L-119,107 L-120,107 L-120,106 L-121,106 L-121,104 L-122,104 L-122,102 L-123,102 L-123,99 L-124,99 L-124,96 L-125,96 L-125,92 L-126,92 L-126,81 L-125,81 L-125,77 L-124,77 L-124,74 L-123,74 L-123,71 L-122,71 L-122,69 L-121,69 L-121,68 L-120,68 L-120,66 L-119,66 L-119,64 L-118,64 L-118,63 L-117,63 L-117,62 L-116,62 L-116,61 L-115,61 L-115,59 L-114,59 L-114,55 L-113,55 L-113,51 L-112,51 L-112,47 L-111,47 L-111,45 L-110,45 L-110,43 L-109,43 L-109,42 L-108,42 L-108,39 L-107,39 L-107,38 L-106,38 L-106,37 L-105,37 L-105,36 L-104,36 L-104,34 L-103,34 L-103,33 L-102,33 L-102,32 L-101,32 L-101,31 L-100,31 L-100,30 L-98,30 L-98,29 L-97,29 L-97,28 L-96,28 L-96,27 L-94,27 L-94,26 L-92,26 L-92,25 L-90,25 L-90,24 L-87,24 L-87,23 L-83,23 L-83,22 L-78,22 L-78,21 L-75,21 L-75,20 L-74,20 L-74,18 L-73,18 L-73,17 L-72,17 L-72,15 L-71,15 L-71,14 L-70,14 L-70,13 L-69,13 L-69,12 L-68,12 L-68,11 L-67,11 L-67,10 L-66,10 L-66,9 L-64,9 L-64,8 L-63,8 L-63,7 L-61,7 L-61,6 L-59,6 L-59,5 L-57,5 L-57,4 L-55,4 L-55,3 L-52,3 L-52,2 L-44,2 L-44,1 L-39,1 L-39,2 L-30,2 L-30,3 L-28,3 L-28,4 L-26,4 L-26,5 L-23,5 L-23,6 L-21,6 L-21,7 L-20,7 L-20,6 L-18,6 L-18,5 L-16,5 L-16,4 L-14,4 L-14,3 L-12,3 L-12,2 L-6,2 L-6,1 L0,1 Z M0,15 L0,16 L-4,16 L-4,17 L-9,17 L-9,19 L-8,19 L-8,20 L-7,20 L-7,22 L-6,22 L-6,25 L-5,25 L-5,28 L-4,28 L-4,30 L-3,30 L-3,34 L-2,34 L-2,46 L-3,46 L-3,50 L-4,50 L-4,53 L-5,53 L-5,55 L-6,55 L-6,58 L-7,58 L-7,59 L-8,59 L-8,60 L-9,60 L-9,62 L-10,62 L-10,64 L-11,64 L-11,65 L-12,65 L-12,66 L-13,66 L-13,68 L-12,68 L-12,70 L-11,70 L-11,71 L-9,71 L-9,72 L-8,72 L-8,73 L-7,73 L-7,74 L-5,74 L-5,75 L-3,75 L-3,76 L9,76 L9,75 L13,75 L13,74 L16,74 L16,73 L18,73 L18,72 L19,72 L19,71 L22,71 L22,70 L23,70 L23,68 L25,68 L25,67 L26,67 L26,65 L27,65 L27,64 L28,64 L28,63 L29,63 L29,62 L30,62 L30,59 L31,59 L31,57 L32,57 L32,56 L33,56 L33,50 L34,50 L34,42 L33,42 L33,37 L32,37 L32,34 L31,34 L31,32 L30,32 L30,30 L29,30 L29,28 L28,28 L28,27 L27,27 L27,26 L26,26 L26,24 L24,24 L24,23 L23,23 L23,22 L22,22 L22,21 L21,21 L21,20 L19,20 L19,19 L17,19 L17,18 L16,18 L16,17 L11,17 L11,16 L6,16 L6,15 Z M-50,17 L-50,18 L-51,18 L-51,19 L-53,19 L-53,20 L-55,20 L-55,21 L-57,21 L-57,23 L-58,23 L-58,24 L-57,24 L-57,25 L-55,25 L-55,26 L-53,26 L-53,27 L-51,27 L-51,28 L-49,28 L-49,29 L-48,29 L-48,30 L-46,30 L-46,31 L-45,31 L-45,32 L-43,32 L-43,33 L-42,33 L-42,34 L-41,34 L-41,35 L-40,35 L-40,36 L-39,36 L-39,37 L-38,37 L-38,38 L-37,38 L-37,39 L-36,39 L-36,40 L-35,40 L-35,41 L-34,41 L-34,42 L-33,42 L-33,43 L-32,43 L-32,44 L-31,44 L-31,46 L-30,46 L-30,47 L-29,47 L-29,48 L-28,48 L-28,50 L-27,50 L-27,51 L-26,51 L-26,52 L-25,52 L-25,53 L-24,53 L-24,55 L-22,55 L-22,53 L-21,53 L-21,51 L-20,51 L-20,50 L-19,50 L-19,47 L-18,47 L-18,44 L-17,44 L-17,37 L-18,37 L-18,33 L-19,33 L-19,30 L-20,30 L-20,28 L-21,28 L-21,27 L-22,27 L-22,25 L-23,25 L-23,24 L-24,24 L-24,23 L-25,23 L-25,22 L-26,22 L-26,21 L-27,21 L-27,20 L-29,20 L-29,19 L-31,19 L-31,18 L-33,18 L-33,17 Z M49,36 L49,54 L48,54 L48,59 L47,59 L47,62 L46,62 L46,64 L45,64 L45,67 L44,67 L44,68 L43,68 L43,70 L42,70 L42,71 L41,71 L41,73 L40,73 L40,74 L39,74 L39,75 L38,75 L38,76 L37,76 L37,77 L36,77 L36,78 L35,78 L35,79 L34,79 L34,82 L49,82 L49,81 L52,81 L52,80 L53,80 L53,79 L55,79 L55,78 L56,78 L56,77 L57,77 L57,76 L58,76 L58,75 L59,75 L59,74 L60,74 L60,73 L61,73 L61,72 L62,72 L62,71 L63,71 L63,68 L64,68 L64,65 L65,65 L65,62 L66,62 L66,56 L65,56 L65,52 L64,52 L64,49 L63,49 L63,47 L62,47 L62,46 L61,46 L61,44 L60,44 L60,43 L59,43 L59,42 L58,42 L58,41 L57,41 L57,40 L56,40 L56,39 L55,39 L55,38 L53,38 L53,37 L50,37 L50,36 Z M-73,36 L-73,37 L-81,37 L-81,38 L-84,38 L-84,39 L-87,39 L-87,40 L-88,40 L-88,41 L-90,41 L-90,42 L-91,42 L-91,43 L-92,43 L-92,44 L-93,44 L-93,45 L-94,45 L-94,47 L-95,47 L-95,48 L-96,48 L-96,49 L-85,49 L-85,50 L-80,50 L-80,51 L-77,51 L-77,52 L-75,52 L-75,53 L-72,53 L-72,54 L-71,54 L-71,55 L-69,55 L-69,56 L-67,56 L-67,57 L-66,57 L-66,58 L-65,58 L-65,59 L-64,59 L-64,60 L-63,60 L-63,61 L-62,61 L-62,62 L-61,62 L-61,63 L-60,63 L-60,64 L-59,64 L-59,65 L-58,65 L-58,66 L-57,66 L-57,68 L-56,68 L-56,69 L-55,69 L-55,71 L-54,71 L-54,72 L-53,72 L-53,74 L-52,74 L-52,75 L-49,75 L-49,76 L-47,76 L-47,77 L-45,77 L-45,78 L-42,78 L-42,79 L-40,79 L-40,80 L-39,80 L-39,81 L-37,81 L-37,82 L-35,82 L-35,83 L-34,83 L-34,84 L-33,84 L-33,85 L-31,85 L-31,86 L-30,86 L-30,87 L-29,87 L-29,88 L-28,88 L-28,89 L-26,89 L-26,90 L-25,90 L-25,91 L-24,91 L-24,92 L-23,92 L-23,93 L-22,93 L-22,94 L-21,94 L-21,95 L-20,95 L-20,96 L-19,96 L-19,97 L-17,97 L-17,99 L-15,99 L-15,100 L-14,100 L-14,101 L-13,101 L-13,102 L-11,102 L-11,103 L-10,103 L-10,104 L-8,104 L-8,105 L-7,105 L-7,106 L-5,106 L-5,107 L-3,107 L-3,108 L1,108 L1,109 L7,109 L7,110 L11,110 L11,109 L16,109 L16,108 L20,108 L20,107 L23,107 L23,106 L24,106 L24,105 L26,105 L26,104 L27,104 L27,103 L29,103 L29,102 L30,102 L30,101 L31,101 L31,100 L32,100 L32,99 L33,99 L33,98 L34,98 L34,97 L32,97 L32,96 L29,96 L29,95 L27,95 L27,94 L24,94 L24,93 L22,93 L22,92 L20,92 L20,91 L19,91 L19,90 L12,90 L12,91 L6,91 L6,92 L0,92 L0,91 L-5,91 L-5,90 L-9,90 L-9,89 L-11,89 L-11,88 L-13,88 L-13,87 L-14,87 L-14,86 L-16,86 L-16,85 L-18,85 L-18,84 L-19,84 L-19,83 L-20,83 L-20,82 L-21,82 L-21,81 L-22,81 L-22,80 L-23,80 L-23,79 L-24,79 L-24,78 L-25,78 L-25,76 L-26,76 L-26,75 L-27,75 L-27,74 L-28,74 L-28,73 L-29,73 L-29,72 L-30,72 L-30,71 L-31,71 L-31,69 L-32,69 L-32,68 L-33,68 L-33,67 L-34,67 L-34,65 L-35,65 L-35,64 L-36,64 L-36,62 L-37,62 L-37,61 L-38,61 L-38,60 L-39,60 L-39,59 L-40,59 L-40,57 L-41,57 L-41,56 L-42,56 L-42,55 L-43,55 L-43,54 L-44,54 L-44,53 L-45,53 L-45,52 L-46,52 L-46,50 L-48,50 L-48,49 L-49,49 L-49,48 L-50,48 L-50,47 L-51,47 L-51,46 L-52,46 L-52,45 L-53,45 L-53,44 L-55,44 L-55,43 L-56,43 L-56,42 L-58,42 L-58,41 L-60,41 L-60,40 L-61,40 L-61,39 L-64,39 L-64,38 L-67,38 L-67,37 L-72,37 L-72,36 Z M-94,64 L-94,65 L-97,65 L-97,66 L-99,66 L-99,67 L-100,67 L-100,68 L-102,68 L-102,69 L-103,69 L-103,70 L-104,70 L-104,71 L-105,71 L-105,72 L-106,72 L-106,74 L-107,74 L-107,75 L-108,75 L-108,78 L-109,78 L-109,80 L-110,80 L-110,85 L-111,85 L-111,89 L-110,89 L-110,94 L-109,94 L-109,96 L-108,96 L-108,99 L-107,99 L-107,100 L-106,100 L-106,101 L-105,101 L-105,102 L-104,102 L-104,103 L-103,103 L-103,102 L-102,102 L-102,100 L-101,100 L-101,97 L-100,97 L-100,95 L-99,95 L-99,93 L-98,93 L-98,92 L-97,92 L-97,90 L-96,90 L-96,89 L-95,89 L-95,88 L-94,88 L-94,86 L-93,86 L-93,85 L-91,85 L-91,83 L-90,83 L-90,82 L-88,82 L-88,81 L-87,81 L-87,80 L-85,80 L-85,79 L-84,79 L-84,78 L-81,78 L-81,77 L-79,77 L-79,76 L-77,76 L-77,75 L-73,75 L-73,74 L-71,74 L-71,73 L-72,73 L-72,72 L-73,72 L-73,71 L-74,71 L-74,70 L-75,70 L-75,69 L-76,69 L-76,68 L-78,68 L-78,67 L-80,67 L-80,66 L-82,66 L-82,65 L-86,65 L-86,64 Z " fill="#B97493" transform="translate(311,129)"/>
<path d="M0,0 L6,0 L6,1 L13,1 L13,2 L18,2 L18,3 L21,3 L21,4 L23,4 L23,5 L25,5 L25,6 L27,6 L27,7 L28,7 L28,8 L30,8 L30,9 L31,9 L31,10 L33,10 L33,11 L34,11 L34,13 L36,13 L36,14 L37,14 L37,15 L38,15 L38,17 L39,17 L39,18 L40,18 L40,19 L41,19 L41,20 L51,20 L51,21 L54,21 L54,22 L56,22 L56,23 L58,23 L58,24 L60,24 L60,25 L62,25 L62,26 L63,26 L63,27 L65,27 L65,28 L66,28 L66,29 L67,29 L67,30 L69,30 L69,31 L70,31 L70,32 L71,32 L71,34 L72,34 L72,35 L73,35 L73,36 L74,36 L74,38 L75,38 L75,39 L76,39 L76,41 L77,41 L77,43 L78,43 L78,46 L79,46 L79,50 L80,50 L80,55 L81,55 L81,63 L80,63 L80,68 L79,68 L79,71 L78,71 L78,74 L77,74 L77,76 L76,76 L76,78 L75,78 L75,79 L74,79 L74,81 L73,81 L73,83 L72,83 L72,84 L71,84 L71,85 L70,85 L70,86 L69,86 L69,87 L66,87 L66,88 L65,88 L65,89 L60,89 L60,88 L59,88 L59,89 L57,89 L57,90 L56,90 L56,91 L59,91 L59,90 L61,90 L61,91 L60,91 L60,92 L54,92 L54,94 L51,94 L51,97 L49,97 L49,95 L48,95 L48,89 L50,89 L50,88 L49,88 L49,87 L48,87 L48,88 L47,88 L47,89 L46,89 L46,90 L43,90 L43,91 L41,91 L41,90 L40,90 L40,89 L32,89 L32,90 L34,90 L34,91 L31,91 L31,93 L26,93 L26,92 L24,92 L24,91 L23,91 L23,90 L27,90 L27,89 L29,89 L29,88 L31,88 L31,87 L32,87 L32,88 L38,88 L38,87 L39,87 L39,86 L37,86 L37,85 L35,85 L35,83 L46,83 L46,84 L53,84 L53,83 L51,83 L51,82 L53,82 L53,81 L54,81 L54,80 L55,80 L55,78 L56,78 L56,77 L57,77 L57,76 L58,76 L58,75 L59,75 L59,74 L60,74 L60,73 L61,73 L61,72 L62,72 L62,71 L63,71 L63,68 L64,68 L64,65 L65,65 L65,62 L66,62 L66,56 L65,56 L65,52 L64,52 L64,49 L63,49 L63,47 L62,47 L62,46 L61,46 L61,44 L60,44 L60,43 L59,43 L59,42 L58,42 L58,41 L57,41 L57,40 L56,40 L56,39 L55,39 L55,38 L53,38 L53,37 L50,37 L50,36 L49,36 L49,54 L48,54 L48,59 L47,59 L47,62 L44,62 L44,63 L43,63 L43,66 L42,66 L42,68 L41,68 L41,65 L40,65 L40,66 L39,66 L39,65 L38,65 L38,67 L37,67 L37,71 L36,71 L36,69 L35,69 L35,68 L34,68 L34,70 L33,70 L33,71 L31,71 L31,70 L30,70 L30,72 L35,72 L35,73 L36,73 L36,76 L35,76 L35,74 L34,74 L34,75 L33,75 L33,77 L34,77 L34,78 L30,78 L30,79 L28,79 L28,80 L27,80 L27,81 L26,81 L26,80 L25,80 L25,79 L22,79 L22,78 L24,78 L24,76 L23,76 L23,77 L22,77 L22,74 L21,74 L21,78 L20,78 L20,79 L19,79 L19,80 L18,80 L18,79 L17,79 L17,78 L15,78 L15,76 L16,76 L16,75 L17,75 L17,74 L19,74 L19,73 L22,73 L22,72 L23,72 L23,73 L24,73 L24,72 L25,72 L25,71 L26,71 L26,70 L27,70 L27,69 L30,69 L30,67 L31,67 L31,65 L30,65 L30,63 L31,63 L31,61 L32,61 L32,60 L33,60 L33,50 L34,50 L34,42 L33,42 L33,37 L32,37 L32,34 L31,34 L31,32 L30,32 L30,30 L29,30 L29,28 L28,28 L28,27 L27,27 L27,26 L26,26 L26,24 L24,24 L24,23 L23,23 L23,22 L22,22 L22,21 L21,21 L21,20 L19,20 L19,19 L17,19 L17,18 L16,18 L16,17 L11,17 L11,16 L6,16 L6,15 L0,15 L0,16 L-4,16 L-4,17 L-9,17 L-9,19 L-8,19 L-8,20 L-7,20 L-7,22 L-6,22 L-6,25 L-5,25 L-5,28 L-4,28 L-4,30 L-3,30 L-3,34 L-2,34 L-2,46 L-3,46 L-3,50 L-4,50 L-4,53 L-5,53 L-5,55 L-6,55 L-6,58 L-7,58 L-7,59 L-8,59 L-8,60 L-9,60 L-9,62 L-10,62 L-10,64 L-11,64 L-11,65 L-12,65 L-12,66 L-13,66 L-13,68 L-12,68 L-12,70 L-11,70 L-11,71 L-13,71 L-13,70 L-14,70 L-14,69 L-15,69 L-15,71 L-16,71 L-16,72 L-20,72 L-20,70 L-21,70 L-21,71 L-23,71 L-23,70 L-24,70 L-24,72 L-25,72 L-25,68 L-26,68 L-26,70 L-29,70 L-29,69 L-30,69 L-30,68 L-31,68 L-31,67 L-32,67 L-32,64 L-34,64 L-34,60 L-35,60 L-35,58 L-37,58 L-37,57 L-38,57 L-38,58 L-39,58 L-39,56 L-40,56 L-40,55 L-41,55 L-41,54 L-42,54 L-42,53 L-43,53 L-43,51 L-44,51 L-44,50 L-45,50 L-45,49 L-44,49 L-44,48 L-48,48 L-48,46 L-50,46 L-50,45 L-48,45 L-48,44 L-41,44 L-41,45 L-39,45 L-39,46 L-40,46 L-40,47 L-39,47 L-39,49 L-37,49 L-37,47 L-36,47 L-36,50 L-33,50 L-33,51 L-32,51 L-32,52 L-29,52 L-29,53 L-28,53 L-28,54 L-27,54 L-27,56 L-26,56 L-26,57 L-22,57 L-22,53 L-21,53 L-21,51 L-20,51 L-20,50 L-19,50 L-19,47 L-18,47 L-18,44 L-17,44 L-17,37 L-18,37 L-18,33 L-19,33 L-19,30 L-20,30 L-20,28 L-21,28 L-21,27 L-22,27 L-22,25 L-23,25 L-23,24 L-24,24 L-24,23 L-25,23 L-25,22 L-26,22 L-26,21 L-27,21 L-27,20 L-29,20 L-29,19 L-31,19 L-31,18 L-33,18 L-33,17 L-50,17 L-50,18 L-51,18 L-51,19 L-53,19 L-53,20 L-55,20 L-55,21 L-57,21 L-57,23 L-58,23 L-58,24 L-57,24 L-57,25 L-55,25 L-55,29 L-56,29 L-56,30 L-58,30 L-58,32 L-57,32 L-57,33 L-55,33 L-55,35 L-56,35 L-56,36 L-57,36 L-57,38 L-58,38 L-58,39 L-60,39 L-60,38 L-63,38 L-63,37 L-67,37 L-67,36 L-69,36 L-69,35 L-78,35 L-78,36 L-83,36 L-83,37 L-86,37 L-86,38 L-88,38 L-88,37 L-89,37 L-89,40 L-92,40 L-92,41 L-95,41 L-95,40 L-94,40 L-94,39 L-96,39 L-96,36 L-95,36 L-95,35 L-97,35 L-97,33 L-98,33 L-98,31 L-92,31 L-92,30 L-91,30 L-91,28 L-92,28 L-92,27 L-90,27 L-90,26 L-85,26 L-85,25 L-83,25 L-83,22 L-78,22 L-78,21 L-75,21 L-75,20 L-74,20 L-74,18 L-73,18 L-73,17 L-72,17 L-72,15 L-71,15 L-71,14 L-70,14 L-70,13 L-69,13 L-69,12 L-68,12 L-68,11 L-67,11 L-67,10 L-66,10 L-66,9 L-64,9 L-64,8 L-63,8 L-63,7 L-61,7 L-61,6 L-59,6 L-59,5 L-57,5 L-57,4 L-55,4 L-55,3 L-52,3 L-52,2 L-44,2 L-44,1 L-39,1 L-39,2 L-30,2 L-30,3 L-28,3 L-28,4 L-26,4 L-26,5 L-23,5 L-23,6 L-21,6 L-21,7 L-20,7 L-20,6 L-18,6 L-18,5 L-16,5 L-16,4 L-14,4 L-14,3 L-12,3 L-12,2 L-6,2 L-6,1 L0,1 Z " fill="#DA8F91" transform="translate(311,129)"/>
<path d="M0,0 L6,0 L6,1 L13,1 L13,2 L18,2 L18,3 L12,3 L12,2 L-4,2 L-4,3 L-8,3 L-8,4 L-12,4 L-12,5 L-14,5 L-14,6 L-9,6 L-9,7 L-8,7 L-8,8 L-11,8 L-11,9 L-16,9 L-16,10 L-18,10 L-18,11 L-13,11 L-13,12 L-8,12 L-8,13 L-11,13 L-11,14 L15,14 L15,15 L18,15 L18,16 L19,16 L19,17 L21,17 L21,16 L22,16 L22,15 L25,15 L25,14 L26,14 L26,16 L23,16 L23,17 L22,17 L22,18 L23,18 L23,19 L24,19 L24,20 L28,20 L28,21 L29,21 L29,22 L31,22 L31,25 L32,25 L32,32 L33,32 L33,37 L32,37 L32,34 L31,34 L31,32 L30,32 L30,30 L29,30 L29,28 L28,28 L28,27 L27,27 L27,26 L26,26 L26,24 L24,24 L24,23 L23,23 L23,22 L22,22 L22,21 L21,21 L21,20 L19,20 L19,19 L17,19 L17,18 L16,18 L16,17 L11,17 L11,16 L6,16 L6,15 L0,15 L0,16 L-4,16 L-4,17 L-9,17 L-9,19 L-8,19 L-8,20 L-7,20 L-7,22 L-6,22 L-6,25 L-5,25 L-5,28 L-4,28 L-4,30 L-3,30 L-3,34 L-2,34 L-2,46 L-3,46 L-3,50 L-4,50 L-4,53 L-5,53 L-5,55 L-6,55 L-6,58 L-7,58 L-7,59 L-8,59 L-8,60 L-9,60 L-9,62 L-10,62 L-10,64 L-11,64 L-11,65 L-12,65 L-12,66 L-13,66 L-13,68 L-12,68 L-12,70 L-11,70 L-11,71 L-13,71 L-13,70 L-14,70 L-14,69 L-15,69 L-15,71 L-16,71 L-16,72 L-20,72 L-20,70 L-21,70 L-21,71 L-23,71 L-23,70 L-24,70 L-24,72 L-25,72 L-25,68 L-26,68 L-26,70 L-29,70 L-29,69 L-30,69 L-30,68 L-31,68 L-31,67 L-32,67 L-32,64 L-34,64 L-34,60 L-35,60 L-35,58 L-37,58 L-37,57 L-38,57 L-38,58 L-39,58 L-39,56 L-40,56 L-40,55 L-41,55 L-41,54 L-42,54 L-42,53 L-43,53 L-43,51 L-44,51 L-44,50 L-45,50 L-45,49 L-44,49 L-44,48 L-48,48 L-48,46 L-50,46 L-50,45 L-48,45 L-48,44 L-41,44 L-41,45 L-39,45 L-39,46 L-40,46 L-40,47 L-39,47 L-39,49 L-37,49 L-37,47 L-36,47 L-36,50 L-33,50 L-33,51 L-32,51 L-32,52 L-29,52 L-29,53 L-28,53 L-28,54 L-27,54 L-27,56 L-26,56 L-26,57 L-22,57 L-22,53 L-21,53 L-21,51 L-20,51 L-20,50 L-19,50 L-19,47 L-18,47 L-18,44 L-17,44 L-17,37 L-18,37 L-18,33 L-19,33 L-19,30 L-20,30 L-20,28 L-21,28 L-21,27 L-22,27 L-22,25 L-23,25 L-23,24 L-24,24 L-24,23 L-25,23 L-25,22 L-26,22 L-26,21 L-27,21 L-27,20 L-29,20 L-29,19 L-31,19 L-31,18 L-33,18 L-33,17 L-50,17 L-50,18 L-51,18 L-51,19 L-53,19 L-53,20 L-55,20 L-55,21 L-57,21 L-57,23 L-58,23 L-58,24 L-57,24 L-57,25 L-55,25 L-55,29 L-56,29 L-56,30 L-58,30 L-58,32 L-57,32 L-57,33 L-55,33 L-55,35 L-56,35 L-56,36 L-57,36 L-57,38 L-58,38 L-58,39 L-60,39 L-60,38 L-63,38 L-63,37 L-67,37 L-67,36 L-69,36 L-69,35 L-78,35 L-78,36 L-83,36 L-83,37 L-86,37 L-86,38 L-88,38 L-88,37 L-89,37 L-89,40 L-92,40 L-92,41 L-95,41 L-95,40 L-94,40 L-94,39 L-96,39 L-96,36 L-95,36 L-95,35 L-97,35 L-97,33 L-98,33 L-98,31 L-92,31 L-92,30 L-91,30 L-91,28 L-92,28 L-92,27 L-90,27 L-90,26 L-85,26 L-85,25 L-83,25 L-83,22 L-78,22 L-78,21 L-75,21 L-75,20 L-74,20 L-74,18 L-73,18 L-73,17 L-72,17 L-72,15 L-71,15 L-71,14 L-70,14 L-70,13 L-69,13 L-69,12 L-68,12 L-68,11 L-67,11 L-67,10 L-66,10 L-66,9 L-64,9 L-64,8 L-63,8 L-63,7 L-61,7 L-61,6 L-59,6 L-59,5 L-57,5 L-57,4 L-55,4 L-55,3 L-52,3 L-52,2 L-44,2 L-44,1 L-39,1 L-39,2 L-30,2 L-30,3 L-28,3 L-28,4 L-26,4 L-26,5 L-23,5 L-23,6 L-21,6 L-21,7 L-20,7 L-20,6 L-18,6 L-18,5 L-16,5 L-16,4 L-14,4 L-14,3 L-12,3 L-12,2 L-6,2 L-6,1 L0,1 Z " fill="#C98293" transform="translate(311,129)"/>
<path d="M0,0 L1,0 L1,1 L4,1 L4,2 L3,2 L3,3 L2,3 L2,4 L1,4 L1,5 L0,5 L0,7 L-1,7 L-1,8 L-2,8 L-2,11 L-3,11 L-3,13 L-4,13 L-4,18 L-5,18 L-5,22 L-4,22 L-4,27 L-3,27 L-3,29 L-2,29 L-2,32 L-1,32 L-1,33 L0,33 L0,34 L1,34 L1,35 L2,35 L2,36 L3,36 L3,35 L4,35 L4,33 L5,33 L5,30 L6,30 L6,28 L7,28 L7,26 L8,26 L8,25 L9,25 L9,23 L10,23 L10,22 L11,22 L11,21 L12,21 L12,19 L13,19 L13,18 L15,18 L15,16 L16,16 L16,15 L18,15 L18,14 L19,14 L19,13 L21,13 L21,12 L22,12 L22,11 L25,11 L25,10 L27,10 L27,9 L29,9 L29,13 L27,13 L27,14 L24,14 L24,13 L22,13 L22,15 L24,15 L24,16 L23,16 L23,17 L22,17 L22,18 L21,18 L21,21 L19,21 L19,22 L20,22 L20,23 L22,23 L22,25 L23,25 L23,27 L25,27 L25,26 L26,26 L26,25 L28,25 L28,24 L30,24 L30,25 L29,25 L29,26 L27,26 L27,27 L26,27 L26,28 L25,28 L25,29 L24,29 L24,30 L23,30 L23,31 L22,31 L22,32 L21,32 L21,33 L20,33 L20,36 L19,36 L19,37 L18,37 L18,40 L17,40 L17,45 L16,45 L16,55 L17,55 L17,58 L18,58 L18,59 L19,59 L19,60 L20,60 L20,61 L27,61 L27,60 L30,60 L30,59 L32,59 L32,58 L33,58 L33,57 L34,57 L34,56 L35,56 L35,55 L36,55 L36,54 L37,54 L37,53 L38,53 L38,52 L39,52 L39,51 L40,51 L40,50 L41,50 L41,49 L42,49 L42,48 L43,48 L43,47 L44,47 L44,46 L45,46 L45,45 L46,45 L46,44 L49,44 L49,43 L50,43 L50,42 L51,42 L51,41 L54,41 L54,40 L58,40 L58,39 L69,39 L69,40 L71,40 L71,52 L70,52 L70,53 L67,53 L67,54 L60,54 L60,55 L57,55 L57,56 L56,56 L56,57 L55,57 L55,58 L54,58 L54,59 L52,59 L52,61 L51,61 L51,62 L49,62 L49,64 L48,64 L48,65 L47,65 L47,66 L45,66 L45,68 L44,68 L44,69 L43,69 L43,70 L41,70 L41,71 L40,71 L40,72 L38,72 L38,73 L35,73 L35,74 L32,74 L32,75 L30,75 L30,76 L26,76 L26,77 L21,77 L21,76 L17,76 L17,75 L15,75 L15,74 L13,74 L13,73 L11,73 L11,72 L10,72 L10,71 L9,71 L9,70 L8,70 L8,69 L7,69 L7,68 L6,68 L6,67 L5,67 L5,65 L4,65 L4,63 L3,63 L3,61 L2,61 L2,56 L1,56 L1,54 L0,54 L0,53 L-1,53 L-1,52 L-3,52 L-3,51 L-5,51 L-5,50 L-6,50 L-6,49 L-7,49 L-7,48 L-8,48 L-8,47 L-9,47 L-9,46 L-10,46 L-10,44 L-12,44 L-12,42 L-13,42 L-13,40 L-14,40 L-14,39 L-15,39 L-15,37 L-16,37 L-16,35 L-17,35 L-17,32 L-18,32 L-18,29 L-19,29 L-19,25 L-20,25 L-20,14 L-19,14 L-19,10 L-18,10 L-18,7 L-17,7 L-17,4 L-16,4 L-16,9 L-17,9 L-17,29 L-16,29 L-16,32 L-14,32 L-14,34 L-12,34 L-12,36 L-10,36 L-10,37 L-8,37 L-8,41 L-7,41 L-7,34 L-6,34 L-6,33 L-5,33 L-5,32 L-6,32 L-6,28 L-7,28 L-7,8 L-3,8 L-3,7 L-2,7 L-2,6 L-1,6 L-1,2 L0,2 Z " fill="#A5628F" transform="translate(205,196)"/>
<path d="M0,0 L2,0 L2,1 L4,1 L4,2 L6,2 L6,3 L7,3 L7,4 L9,4 L9,5 L10,5 L10,6 L12,6 L12,7 L13,7 L13,8 L14,8 L14,9 L15,9 L15,10 L16,10 L16,11 L17,11 L17,12 L18,12 L18,13 L19,13 L19,14 L20,14 L20,15 L21,15 L21,16 L22,16 L22,17 L23,17 L23,18 L24,18 L24,20 L25,20 L25,21 L26,21 L26,22 L27,22 L27,24 L28,24 L28,25 L29,25 L29,26 L30,26 L30,27 L31,27 L31,29 L33,29 L33,31 L29,31 L29,30 L28,30 L28,28 L27,28 L27,27 L26,27 L26,26 L23,26 L23,25 L22,25 L22,24 L19,24 L19,21 L18,21 L18,23 L16,23 L16,21 L15,21 L15,20 L16,20 L16,19 L14,19 L14,18 L7,18 L7,19 L5,19 L5,20 L7,20 L7,22 L11,22 L11,23 L10,23 L10,24 L11,24 L11,25 L12,25 L12,27 L13,27 L13,28 L14,28 L14,29 L15,29 L15,30 L16,30 L16,32 L17,32 L17,31 L18,31 L18,32 L20,32 L20,34 L21,34 L21,38 L23,38 L23,41 L24,41 L24,42 L25,42 L25,43 L26,43 L26,44 L29,44 L29,42 L30,42 L30,46 L31,46 L31,44 L32,44 L32,45 L34,45 L34,44 L35,44 L35,46 L39,46 L39,45 L40,45 L40,43 L41,43 L41,44 L42,44 L42,45 L46,45 L46,46 L47,46 L47,47 L48,47 L48,48 L50,48 L50,49 L52,49 L52,50 L64,50 L64,49 L68,49 L68,48 L71,48 L71,47 L73,47 L73,46 L74,46 L74,45 L77,45 L77,44 L78,44 L78,42 L80,42 L80,41 L81,41 L81,39 L82,39 L82,38 L83,38 L83,37 L84,37 L84,36 L85,36 L85,33 L86,33 L86,31 L87,31 L87,30 L88,30 L88,34 L87,34 L87,35 L86,35 L86,37 L85,37 L85,39 L86,39 L86,41 L85,41 L85,43 L82,43 L82,44 L81,44 L81,45 L80,45 L80,46 L79,46 L79,47 L78,47 L78,46 L77,46 L77,47 L74,47 L74,48 L72,48 L72,49 L71,49 L71,50 L70,50 L70,52 L72,52 L72,53 L73,53 L73,54 L74,54 L74,53 L75,53 L75,52 L76,52 L76,48 L77,48 L77,51 L78,51 L78,50 L79,50 L79,52 L77,52 L77,53 L80,53 L80,54 L81,54 L81,55 L82,55 L82,54 L83,54 L83,53 L85,53 L85,52 L89,52 L89,51 L88,51 L88,49 L89,49 L89,48 L90,48 L90,50 L91,50 L91,47 L90,47 L90,46 L85,46 L85,44 L86,44 L86,45 L88,45 L88,44 L89,44 L89,42 L90,42 L90,43 L91,43 L91,45 L92,45 L92,41 L93,41 L93,39 L94,39 L94,40 L95,40 L95,39 L96,39 L96,42 L97,42 L97,40 L98,40 L98,37 L99,37 L99,36 L101,36 L101,38 L100,38 L100,41 L99,41 L99,42 L98,42 L98,44 L97,44 L97,45 L96,45 L96,47 L95,47 L95,48 L94,48 L94,49 L93,49 L93,50 L92,50 L92,51 L91,51 L91,52 L90,52 L90,53 L89,53 L89,56 L104,56 L104,55 L107,55 L107,54 L108,54 L108,53 L110,53 L110,54 L109,54 L109,55 L108,55 L108,56 L106,56 L106,57 L108,57 L108,58 L101,58 L101,57 L90,57 L90,59 L92,59 L92,60 L94,60 L94,61 L93,61 L93,62 L87,62 L87,61 L86,61 L86,62 L84,62 L84,63 L82,63 L82,64 L78,64 L78,65 L79,65 L79,66 L81,66 L81,67 L86,67 L86,65 L89,65 L89,64 L87,64 L87,63 L95,63 L95,64 L96,64 L96,65 L98,65 L98,64 L101,64 L101,63 L102,63 L102,62 L103,62 L103,61 L104,61 L104,62 L105,62 L105,63 L103,63 L103,69 L104,69 L104,71 L106,71 L106,68 L109,68 L109,66 L115,66 L115,65 L116,65 L116,64 L114,64 L114,65 L111,65 L111,64 L112,64 L112,63 L114,63 L114,62 L115,62 L115,63 L120,63 L120,62 L121,62 L121,61 L123,61 L123,62 L122,62 L122,63 L121,63 L121,64 L119,64 L119,65 L118,65 L118,66 L116,66 L116,67 L113,67 L113,68 L111,68 L111,69 L109,69 L109,70 L107,70 L107,72 L106,72 L106,74 L105,74 L105,75 L104,75 L104,77 L103,77 L103,78 L102,78 L102,79 L101,79 L101,81 L100,81 L100,82 L99,82 L99,83 L98,83 L98,84 L97,84 L97,85 L96,85 L96,86 L95,86 L95,87 L94,87 L94,88 L89,88 L89,87 L87,87 L87,89 L80,89 L80,91 L84,91 L84,90 L86,90 L86,92 L84,92 L84,93 L82,93 L82,94 L77,94 L77,93 L80,93 L80,92 L73,92 L73,91 L66,91 L66,90 L64,90 L64,89 L62,89 L62,90 L61,90 L61,91 L60,91 L60,92 L57,92 L57,90 L56,90 L56,89 L55,89 L55,90 L49,90 L49,89 L48,89 L48,88 L50,88 L50,87 L53,87 L53,85 L56,85 L56,86 L67,86 L67,87 L71,87 L71,88 L72,88 L72,87 L75,87 L75,86 L76,86 L76,85 L71,85 L71,84 L74,84 L74,83 L78,83 L78,82 L79,82 L79,81 L81,81 L81,84 L84,84 L84,85 L86,85 L86,82 L85,82 L85,80 L83,80 L83,81 L82,81 L82,79 L83,79 L83,78 L85,78 L85,75 L86,75 L86,74 L87,74 L87,73 L88,73 L88,72 L89,72 L89,71 L87,71 L87,70 L84,70 L84,69 L82,69 L82,68 L79,68 L79,67 L77,67 L77,66 L75,66 L75,65 L74,65 L74,64 L67,64 L67,65 L61,65 L61,66 L55,66 L55,65 L50,65 L50,64 L46,64 L46,63 L44,63 L44,62 L42,62 L42,61 L41,61 L41,60 L39,60 L39,59 L37,59 L37,58 L36,58 L36,57 L35,57 L35,56 L34,56 L34,55 L33,55 L33,54 L32,54 L32,53 L31,53 L31,52 L30,52 L30,50 L29,50 L29,49 L28,49 L28,48 L27,48 L27,47 L26,47 L26,46 L25,46 L25,45 L24,45 L24,43 L23,43 L23,42 L22,42 L22,41 L21,41 L21,39 L20,39 L20,38 L19,38 L19,36 L18,36 L18,35 L17,35 L17,34 L16,34 L16,33 L15,33 L15,31 L14,31 L14,30 L13,30 L13,29 L12,29 L12,28 L11,28 L11,27 L10,27 L10,26 L9,26 L9,24 L7,24 L7,23 L6,23 L6,22 L5,22 L5,21 L4,21 L4,20 L3,20 L3,19 L2,19 L2,18 L0,18 L0,17 L-1,17 L-1,16 L-3,16 L-3,15 L-5,15 L-5,14 L-6,14 L-6,13 L-9,13 L-9,12 L-12,12 L-12,11 L-8,11 L-8,12 L-5,12 L-5,13 L-3,13 L-3,12 L-2,12 L-2,10 L-1,10 L-1,9 L0,9 L0,7 L-2,7 L-2,6 L-3,6 L-3,4 L-1,4 L-1,3 L0,3 Z " fill="#C27B92" transform="translate(256,155)"/>
<path d="M0,0 L7,0 L7,1 L8,1 L8,3 L10,3 L10,4 L11,4 L11,6 L12,6 L12,11 L11,11 L11,12 L10,12 L10,13 L8,13 L8,15 L6,15 L6,16 L5,16 L5,17 L4,17 L4,18 L3,18 L3,19 L2,19 L2,20 L1,20 L1,21 L0,21 L0,22 L-1,22 L-1,23 L-2,23 L-2,24 L-3,24 L-3,26 L-4,26 L-4,27 L-5,27 L-5,28 L-6,28 L-6,29 L-7,29 L-7,30 L-8,30 L-8,31 L-9,31 L-9,32 L-10,32 L-10,33 L-11,33 L-11,34 L-12,34 L-12,35 L-13,35 L-13,36 L-14,36 L-14,37 L-15,37 L-15,38 L-16,38 L-16,39 L-17,39 L-17,40 L-18,40 L-18,41 L-19,41 L-19,42 L-20,42 L-20,43 L-21,43 L-21,44 L-22,44 L-22,45 L-23,45 L-23,46 L-24,46 L-24,47 L-25,47 L-25,48 L-26,48 L-26,49 L-27,49 L-27,50 L-28,50 L-28,51 L-29,51 L-29,52 L-31,52 L-31,53 L-34,53 L-34,52 L-36,52 L-36,51 L-37,51 L-37,48 L-38,48 L-38,45 L-39,45 L-39,39 L-40,39 L-40,33 L-41,33 L-41,30 L-42,30 L-42,25 L-43,25 L-43,23 L-42,23 L-42,20 L-41,20 L-41,19 L-40,19 L-40,18 L-37,18 L-37,17 L-33,17 L-33,16 L-31,16 L-31,17 L-29,17 L-29,18 L-28,18 L-28,23 L-27,23 L-27,26 L-25,26 L-25,25 L-24,25 L-24,24 L-23,24 L-23,23 L-22,23 L-22,22 L-21,22 L-21,21 L-20,21 L-20,20 L-19,20 L-19,19 L-18,19 L-18,18 L-17,18 L-17,17 L-16,17 L-16,16 L-15,16 L-15,15 L-14,15 L-14,14 L-13,14 L-13,13 L-12,13 L-12,12 L-11,12 L-11,11 L-10,11 L-10,10 L-9,10 L-9,9 L-8,9 L-8,8 L-7,8 L-7,7 L-6,7 L-6,6 L-5,6 L-5,5 L-4,5 L-4,4 L-3,4 L-3,3 L-2,3 L-2,2 L-1,2 L-1,1 L0,1 Z " fill="#9F5E90" transform="translate(286,251)"/>
<path d="M0,0 L1,0 L1,1 L2,1 L2,3 L3,3 L3,4 L6,4 L6,5 L8,5 L8,6 L10,6 L10,7 L13,7 L13,8 L15,8 L15,9 L16,9 L16,10 L18,10 L18,11 L20,11 L20,12 L21,12 L21,13 L22,13 L22,14 L24,14 L24,15 L25,15 L25,16 L26,16 L26,17 L27,17 L27,18 L29,18 L29,19 L30,19 L30,20 L31,20 L31,21 L32,21 L32,22 L33,22 L33,23 L34,23 L34,24 L35,24 L35,25 L36,25 L36,26 L38,26 L38,28 L40,28 L40,29 L41,29 L41,30 L42,30 L42,31 L44,31 L44,32 L45,32 L45,33 L47,33 L47,34 L48,34 L48,35 L50,35 L50,36 L52,36 L52,37 L56,37 L56,38 L62,38 L62,39 L66,39 L66,38 L71,38 L71,37 L75,37 L75,36 L78,36 L78,35 L79,35 L79,34 L81,34 L81,33 L82,33 L82,32 L84,32 L84,31 L85,31 L85,33 L83,33 L83,34 L82,34 L82,36 L83,36 L83,35 L85,35 L85,37 L86,37 L86,40 L84,40 L84,39 L81,39 L81,36 L79,36 L79,37 L78,37 L78,38 L74,38 L74,39 L71,39 L71,40 L76,40 L76,41 L75,41 L75,42 L72,42 L72,43 L71,43 L71,42 L67,42 L67,41 L56,41 L56,40 L53,40 L53,42 L50,42 L50,43 L48,43 L48,44 L49,44 L49,45 L55,45 L55,44 L56,44 L56,45 L57,45 L57,47 L60,47 L60,46 L61,46 L61,45 L62,45 L62,44 L64,44 L64,45 L66,45 L66,46 L73,46 L73,47 L80,47 L80,48 L77,48 L77,49 L82,49 L82,48 L84,48 L84,47 L86,47 L86,45 L84,45 L84,46 L80,46 L80,44 L87,44 L87,42 L89,42 L89,43 L93,43 L93,44 L91,44 L91,45 L90,45 L90,46 L88,46 L88,47 L87,47 L87,48 L85,48 L85,49 L83,49 L83,50 L80,50 L80,51 L76,51 L76,52 L72,52 L72,53 L56,53 L56,52 L52,52 L52,51 L48,51 L48,50 L46,50 L46,49 L44,49 L44,48 L41,48 L41,47 L39,47 L39,46 L38,46 L38,45 L37,45 L37,44 L35,44 L35,43 L34,43 L34,42 L33,42 L33,41 L31,41 L31,40 L30,40 L30,39 L29,39 L29,38 L28,38 L28,37 L26,37 L26,36 L25,36 L25,35 L24,35 L24,34 L23,34 L23,33 L22,33 L22,32 L21,32 L21,31 L20,31 L20,30 L19,30 L19,29 L17,29 L17,28 L16,28 L16,27 L15,27 L15,26 L13,26 L13,25 L12,25 L12,24 L11,24 L11,23 L9,23 L9,22 L7,22 L7,21 L11,21 L11,22 L16,22 L16,20 L15,20 L15,19 L16,19 L16,18 L17,18 L17,17 L18,17 L18,16 L17,16 L17,15 L15,15 L15,14 L16,14 L16,13 L17,13 L17,14 L19,14 L19,12 L15,12 L15,10 L14,10 L14,9 L12,9 L12,8 L10,8 L10,9 L9,9 L9,7 L6,7 L6,6 L1,6 L1,4 L0,4 Z " fill="#B47192" transform="translate(256,200)"/>
<path d="M0,0 L2,0 L2,2 L3,2 L3,4 L2,4 L2,5 L1,5 L1,3 L0,3 L0,4 L-1,4 L-1,5 L-2,5 L-2,9 L-3,9 L-3,11 L-2,11 L-2,15 L-3,15 L-3,31 L-2,31 L-2,32 L-1,32 L-1,35 L0,35 L0,36 L1,36 L1,37 L2,37 L2,38 L11,38 L11,37 L13,37 L13,38 L16,38 L16,39 L15,39 L15,40 L14,40 L14,41 L17,41 L17,42 L20,42 L20,43 L21,43 L21,44 L23,44 L23,45 L21,45 L21,47 L18,47 L18,48 L11,48 L11,49 L10,49 L10,48 L9,48 L9,49 L7,49 L7,50 L5,50 L5,49 L4,49 L4,48 L2,48 L2,46 L1,46 L1,45 L-1,45 L-1,47 L-3,47 L-3,46 L-4,46 L-4,45 L-8,45 L-8,44 L-10,44 L-10,41 L-11,41 L-11,38 L-10,38 L-10,36 L-11,36 L-11,37 L-12,37 L-12,34 L-13,34 L-13,33 L-14,33 L-14,28 L-15,28 L-15,27 L-13,27 L-13,25 L-15,25 L-15,24 L-17,24 L-17,25 L-18,25 L-18,26 L-20,26 L-20,25 L-19,25 L-19,24 L-21,24 L-21,22 L-22,22 L-22,18 L-21,18 L-21,15 L-18,15 L-18,14 L-17,14 L-17,12 L-16,12 L-16,14 L-15,14 L-15,15 L-13,15 L-13,13 L-12,13 L-12,11 L-11,11 L-11,8 L-10,8 L-10,5 L-7,5 L-7,4 L-2,4 L-2,2 L0,2 Z " fill="#9E5B92" transform="translate(222,220)"/>
<path d="M0,0 L6,0 L6,1 L13,1 L13,2 L18,2 L18,3 L12,3 L12,2 L-4,2 L-4,3 L-8,3 L-8,4 L-12,4 L-12,5 L-14,5 L-14,6 L-9,6 L-9,7 L-8,7 L-8,8 L-11,8 L-11,9 L-16,9 L-16,10 L-18,10 L-18,11 L-13,11 L-13,12 L-8,12 L-8,13 L-11,13 L-11,14 L15,14 L15,15 L18,15 L18,16 L19,16 L19,17 L21,17 L21,16 L22,16 L22,15 L25,15 L25,14 L26,14 L26,16 L23,16 L23,17 L22,17 L22,18 L23,18 L23,19 L24,19 L24,20 L28,20 L28,21 L29,21 L29,22 L31,22 L31,25 L32,25 L32,32 L33,32 L33,37 L32,37 L32,34 L31,34 L31,32 L30,32 L30,30 L29,30 L29,28 L28,28 L28,27 L27,27 L27,26 L26,26 L26,24 L24,24 L24,23 L23,23 L23,22 L22,22 L22,21 L21,21 L21,20 L19,20 L19,19 L17,19 L17,18 L16,18 L16,17 L11,17 L11,16 L6,16 L6,15 L0,15 L0,16 L-4,16 L-4,17 L-9,17 L-9,19 L-12,19 L-12,20 L-14,20 L-14,21 L-11,21 L-11,22 L-12,22 L-12,23 L-11,23 L-11,25 L-12,25 L-12,27 L-14,27 L-14,30 L-16,30 L-16,29 L-17,29 L-17,33 L-16,33 L-16,45 L-17,45 L-17,49 L-18,49 L-18,51 L-19,51 L-19,54 L-20,54 L-20,55 L-22,55 L-22,53 L-21,53 L-21,51 L-20,51 L-20,50 L-19,50 L-19,47 L-18,47 L-18,44 L-17,44 L-17,37 L-18,37 L-18,33 L-19,33 L-19,30 L-20,30 L-20,28 L-21,28 L-21,27 L-22,27 L-22,25 L-23,25 L-23,24 L-24,24 L-24,23 L-25,23 L-25,22 L-26,22 L-26,21 L-27,21 L-27,20 L-21,20 L-21,26 L-19,26 L-19,22 L-17,22 L-17,17 L-16,17 L-16,16 L-17,16 L-17,15 L-18,15 L-18,14 L-21,14 L-21,15 L-20,15 L-20,16 L-21,16 L-21,17 L-24,17 L-24,16 L-22,16 L-22,14 L-23,14 L-23,15 L-25,15 L-25,14 L-26,14 L-26,13 L-28,13 L-28,12 L-27,12 L-27,11 L-31,11 L-31,10 L-32,10 L-32,9 L-33,9 L-33,8 L-36,8 L-36,9 L-47,9 L-47,10 L-48,10 L-48,8 L-47,8 L-47,7 L-49,7 L-49,6 L-50,6 L-50,4 L-53,4 L-53,5 L-55,5 L-55,6 L-59,6 L-59,5 L-57,5 L-57,4 L-55,4 L-55,3 L-52,3 L-52,2 L-44,2 L-44,1 L-39,1 L-39,2 L-30,2 L-30,3 L-28,3 L-28,4 L-26,4 L-26,5 L-23,5 L-23,6 L-21,6 L-21,7 L-20,7 L-20,6 L-18,6 L-18,5 L-16,5 L-16,4 L-14,4 L-14,3 L-12,3 L-12,2 L-6,2 L-6,1 L0,1 Z " fill="#C58388" transform="translate(311,129)"/>
<path d="M0,0 L1,0 L1,1 L2,1 L2,2 L0,2 L0,8 L1,8 L1,10 L3,10 L3,7 L6,7 L6,5 L12,5 L12,4 L13,4 L13,3 L11,3 L11,4 L8,4 L8,3 L9,3 L9,2 L11,2 L11,1 L12,1 L12,2 L17,2 L17,1 L18,1 L18,0 L20,0 L20,1 L19,1 L19,2 L18,2 L18,3 L16,3 L16,4 L15,4 L15,5 L13,5 L13,6 L10,6 L10,7 L8,7 L8,8 L6,8 L6,9 L4,9 L4,11 L3,11 L3,13 L2,13 L2,14 L1,14 L1,16 L0,16 L0,17 L-1,17 L-1,18 L-2,18 L-2,20 L-3,20 L-3,21 L-4,21 L-4,22 L-5,22 L-5,23 L-6,23 L-6,24 L-7,24 L-7,25 L-8,25 L-8,26 L-9,26 L-9,27 L-14,27 L-14,26 L-16,26 L-16,28 L-23,28 L-23,30 L-19,30 L-19,29 L-17,29 L-17,31 L-19,31 L-19,32 L-21,32 L-21,33 L-26,33 L-26,32 L-23,32 L-23,31 L-30,31 L-30,30 L-37,30 L-37,29 L-39,29 L-39,28 L-41,28 L-41,29 L-42,29 L-42,30 L-43,30 L-43,31 L-46,31 L-46,29 L-47,29 L-47,28 L-48,28 L-48,29 L-54,29 L-54,28 L-55,28 L-55,27 L-53,27 L-53,26 L-50,26 L-50,24 L-47,24 L-47,25 L-36,25 L-36,26 L-32,26 L-32,27 L-31,27 L-31,26 L-28,26 L-28,25 L-27,25 L-27,24 L-32,24 L-32,23 L-29,23 L-29,22 L-25,22 L-25,21 L-24,21 L-24,20 L-22,20 L-22,23 L-19,23 L-19,24 L-17,24 L-17,21 L-18,21 L-18,19 L-20,19 L-20,20 L-21,20 L-21,18 L-20,18 L-20,17 L-18,17 L-18,14 L-17,14 L-17,13 L-16,13 L-16,12 L-15,12 L-15,11 L-14,11 L-14,10 L-16,10 L-16,9 L-19,9 L-19,6 L-17,6 L-17,4 L-14,4 L-14,3 L-16,3 L-16,2 L-8,2 L-8,3 L-7,3 L-7,4 L-5,4 L-5,3 L-2,3 L-2,2 L-1,2 L-1,1 L0,1 Z " fill="#C67D92" transform="translate(359,216)"/>
<path d="M0,0 L1,0 L1,4 L0,4 L0,5 L-1,5 L-1,7 L-2,7 L-2,9 L-1,9 L-1,11 L-2,11 L-2,13 L-5,13 L-5,14 L-6,14 L-6,15 L-7,15 L-7,16 L-8,16 L-8,17 L-9,17 L-9,16 L-10,16 L-10,17 L-13,17 L-13,18 L-15,18 L-15,19 L-16,19 L-16,20 L-17,20 L-17,22 L-15,22 L-15,23 L-14,23 L-14,24 L-13,24 L-13,23 L-12,23 L-12,22 L-11,22 L-11,18 L-10,18 L-10,21 L-9,21 L-9,20 L-8,20 L-8,22 L-10,22 L-10,23 L-7,23 L-7,24 L-6,24 L-6,25 L-5,25 L-5,24 L-4,24 L-4,23 L-2,23 L-2,22 L2,22 L2,21 L1,21 L1,19 L2,19 L2,18 L3,18 L3,20 L4,20 L4,17 L3,17 L3,16 L-2,16 L-2,14 L-1,14 L-1,15 L1,15 L1,14 L2,14 L2,12 L3,12 L3,13 L4,13 L4,15 L5,15 L5,11 L6,11 L6,9 L7,9 L7,10 L8,10 L8,9 L9,9 L9,12 L10,12 L10,10 L11,10 L11,7 L12,7 L12,6 L14,6 L14,8 L13,8 L13,11 L12,11 L12,12 L11,12 L11,14 L10,14 L10,15 L9,15 L9,17 L8,17 L8,18 L7,18 L7,19 L6,19 L6,20 L5,20 L5,21 L4,21 L4,22 L3,22 L3,23 L2,23 L2,26 L17,26 L17,25 L20,25 L20,24 L21,24 L21,23 L23,23 L23,24 L22,24 L22,25 L21,25 L21,26 L19,26 L19,27 L21,27 L21,28 L14,28 L14,27 L3,27 L3,29 L5,29 L5,30 L7,30 L7,31 L6,31 L6,32 L0,32 L0,31 L-1,31 L-1,32 L-3,32 L-3,33 L-5,33 L-5,34 L-9,34 L-9,35 L-8,35 L-8,36 L-6,36 L-6,37 L-3,37 L-3,39 L-5,39 L-5,38 L-8,38 L-8,37 L-10,37 L-10,36 L-12,36 L-12,35 L-13,35 L-13,34 L-20,34 L-20,33 L-13,33 L-13,32 L-12,32 L-12,31 L-13,31 L-13,30 L-15,30 L-15,31 L-16,31 L-16,30 L-19,30 L-19,28 L-20,28 L-20,24 L-19,24 L-19,22 L-22,22 L-22,23 L-33,23 L-33,22 L-24,22 L-24,21 L-38,21 L-38,20 L-39,20 L-39,19 L-40,19 L-40,18 L-41,18 L-41,17 L-42,17 L-42,15 L-41,15 L-41,16 L-40,16 L-40,17 L-39,17 L-39,18 L-37,18 L-37,19 L-35,19 L-35,20 L-23,20 L-23,19 L-19,19 L-19,18 L-16,18 L-16,17 L-14,17 L-14,16 L-13,16 L-13,15 L-10,15 L-10,14 L-9,14 L-9,12 L-7,12 L-7,11 L-6,11 L-6,9 L-5,9 L-5,8 L-4,8 L-4,7 L-3,7 L-3,6 L-2,6 L-2,3 L-1,3 L-1,1 L0,1 Z " fill="#BF7B8C" transform="translate(343,185)"/>
<path d="M0,0 L4,0 L4,1 L5,1 L5,2 L8,2 L8,3 L9,3 L9,4 L6,4 L6,3 L5,3 L5,21 L4,21 L4,26 L3,26 L3,29 L0,29 L0,30 L-1,30 L-1,33 L-2,33 L-2,35 L-3,35 L-3,32 L-4,32 L-4,33 L-5,33 L-5,32 L-6,32 L-6,34 L-7,34 L-7,38 L-8,38 L-8,36 L-9,36 L-9,35 L-10,35 L-10,37 L-11,37 L-11,38 L-13,38 L-13,37 L-14,37 L-14,39 L-9,39 L-9,40 L-8,40 L-8,43 L-9,43 L-9,41 L-10,41 L-10,42 L-11,42 L-11,44 L-10,44 L-10,45 L-14,45 L-14,46 L-16,46 L-16,47 L-17,47 L-17,48 L-18,48 L-18,47 L-19,47 L-19,46 L-22,46 L-22,45 L-20,45 L-20,43 L-21,43 L-21,44 L-22,44 L-22,41 L-23,41 L-23,45 L-24,45 L-24,46 L-25,46 L-25,47 L-26,47 L-26,46 L-27,46 L-27,45 L-29,45 L-29,43 L-28,43 L-28,42 L-27,42 L-27,41 L-25,41 L-25,40 L-22,40 L-22,39 L-21,39 L-21,40 L-20,40 L-20,39 L-19,39 L-19,38 L-18,38 L-18,37 L-17,37 L-17,36 L-14,36 L-14,34 L-13,34 L-13,32 L-14,32 L-14,30 L-13,30 L-13,28 L-12,28 L-12,27 L-11,27 L-11,17 L-10,17 L-10,9 L-11,9 L-11,4 L-10,4 L-10,7 L-9,7 L-9,9 L-8,9 L-8,18 L-9,18 L-9,20 L-10,20 L-10,24 L-9,24 L-9,22 L-8,22 L-8,20 L-7,20 L-7,14 L-6,14 L-6,19 L-5,19 L-5,22 L-4,22 L-4,23 L-3,23 L-3,22 L-1,22 L-1,19 L0,19 L0,14 L1,14 L1,11 L0,11 L0,4 L-2,4 L-2,2 L0,2 L0,3 L1,3 L1,5 L2,5 L2,2 L1,2 L1,1 L0,1 Z " fill="#D08B91" transform="translate(355,162)"/>
<path d="M0,0 L2,0 L2,1 L4,1 L4,2 L6,2 L6,3 L7,3 L7,4 L9,4 L9,5 L10,5 L10,6 L12,6 L12,7 L13,7 L13,8 L14,8 L14,9 L15,9 L15,10 L16,10 L16,11 L17,11 L17,12 L18,12 L18,13 L19,13 L19,14 L20,14 L20,15 L21,15 L21,16 L22,16 L22,17 L23,17 L23,18 L24,18 L24,20 L25,20 L25,21 L26,21 L26,22 L27,22 L27,24 L28,24 L28,25 L29,25 L29,26 L30,26 L30,27 L31,27 L31,29 L33,29 L33,31 L29,31 L29,30 L28,30 L28,28 L27,28 L27,27 L26,27 L26,26 L23,26 L23,25 L22,25 L22,24 L19,24 L19,21 L18,21 L18,23 L16,23 L16,21 L15,21 L15,20 L16,20 L16,19 L14,19 L14,18 L7,18 L7,19 L5,19 L5,20 L7,20 L7,22 L11,22 L11,23 L10,23 L10,24 L11,24 L11,25 L12,25 L12,27 L13,27 L13,28 L14,28 L14,29 L15,29 L15,30 L16,30 L16,32 L17,32 L17,31 L18,31 L18,32 L20,32 L20,34 L21,34 L21,38 L23,38 L23,41 L24,41 L24,42 L25,42 L25,43 L26,43 L26,44 L28,44 L28,48 L27,48 L27,47 L26,47 L26,46 L25,46 L25,45 L24,45 L24,43 L23,43 L23,42 L22,42 L22,41 L21,41 L21,39 L20,39 L20,38 L19,38 L19,36 L18,36 L18,35 L17,35 L17,34 L16,34 L16,33 L15,33 L15,31 L14,31 L14,30 L13,30 L13,29 L12,29 L12,28 L11,28 L11,27 L10,27 L10,26 L9,26 L9,24 L7,24 L7,23 L6,23 L6,22 L5,22 L5,21 L4,21 L4,20 L3,20 L3,19 L2,19 L2,18 L0,18 L0,17 L-1,17 L-1,16 L-3,16 L-3,15 L-5,15 L-5,14 L-6,14 L-6,13 L-9,13 L-9,12 L-12,12 L-12,11 L-8,11 L-8,12 L-5,12 L-5,13 L-3,13 L-3,12 L-2,12 L-2,10 L-1,10 L-1,9 L0,9 L0,7 L-2,7 L-2,6 L-3,6 L-3,4 L-1,4 L-1,3 L0,3 Z " fill="#C27D8F" transform="translate(256,155)"/>
<path d="M0,0 L11,0 L11,1 L13,1 L13,13 L12,13 L12,14 L9,14 L9,15 L2,15 L2,16 L-1,16 L-1,17 L-2,17 L-2,18 L-6,18 L-6,17 L-7,17 L-7,18 L-8,18 L-8,17 L-9,17 L-9,22 L-10,22 L-10,21 L-12,21 L-12,22 L-15,22 L-15,23 L-16,23 L-16,22 L-17,22 L-17,21 L-18,21 L-18,14 L-15,14 L-15,13 L-17,13 L-17,12 L-16,12 L-16,11 L-15,11 L-15,8 L-14,8 L-14,7 L-13,7 L-13,6 L-12,6 L-12,5 L-9,5 L-9,4 L-8,4 L-8,3 L-7,3 L-7,2 L-4,2 L-4,1 L0,1 Z " fill="#A9678F" transform="translate(263,235)"/>
<path d="M0,0 L1,0 L1,1 L3,1 L3,3 L4,3 L4,2 L5,2 L5,3 L6,3 L6,4 L4,4 L4,5 L2,5 L2,7 L6,7 L6,6 L9,6 L9,10 L8,10 L8,9 L6,9 L6,10 L5,10 L5,11 L7,11 L7,13 L6,13 L6,12 L4,12 L4,13 L5,13 L5,14 L4,14 L4,15 L3,15 L3,19 L1,19 L1,20 L0,20 L0,21 L-5,21 L-5,20 L-6,20 L-6,21 L-8,21 L-8,22 L-9,22 L-9,23 L-6,23 L-6,22 L-4,22 L-4,23 L-5,23 L-5,24 L-11,24 L-11,26 L-14,26 L-14,29 L-16,29 L-16,27 L-17,27 L-17,21 L-15,21 L-15,20 L-16,20 L-16,19 L-17,19 L-17,20 L-18,20 L-18,21 L-19,21 L-19,22 L-22,22 L-22,23 L-24,23 L-24,22 L-25,22 L-25,21 L-33,21 L-33,22 L-31,22 L-31,23 L-34,23 L-34,25 L-39,25 L-39,24 L-41,24 L-41,23 L-42,23 L-42,22 L-38,22 L-38,21 L-36,21 L-36,20 L-34,20 L-34,19 L-33,19 L-33,20 L-27,20 L-27,19 L-26,19 L-26,18 L-28,18 L-28,17 L-30,17 L-30,15 L-19,15 L-19,16 L-12,16 L-12,15 L-14,15 L-14,14 L-12,14 L-12,13 L-11,13 L-11,12 L-10,12 L-10,11 L-8,11 L-8,10 L-7,10 L-7,9 L-5,9 L-5,8 L-4,8 L-4,10 L-3,10 L-3,9 L-2,9 L-2,8 L-3,8 L-3,7 L-2,7 L-2,4 L-1,4 L-1,3 L0,3 Z " fill="#CC8694" transform="translate(376,197)"/>
<path d="M0,0 L1,0 L1,2 L0,2 L0,3 L-1,3 L-1,8 L-2,8 L-2,9 L-3,9 L-3,10 L-4,10 L-4,14 L-5,14 L-5,17 L-4,17 L-4,21 L-5,21 L-5,22 L0,22 L0,24 L-2,24 L-2,25 L-3,25 L-3,27 L-4,27 L-4,28 L-5,28 L-5,26 L-4,26 L-4,25 L-5,25 L-5,24 L-6,24 L-6,20 L-7,20 L-7,24 L-8,24 L-8,25 L-9,25 L-9,26 L-10,26 L-10,27 L-11,27 L-11,28 L-12,28 L-12,29 L-13,29 L-13,31 L-14,31 L-14,33 L-13,33 L-13,39 L-12,39 L-12,37 L-11,37 L-11,36 L-10,36 L-10,42 L-9,42 L-9,41 L-8,41 L-8,59 L-7,59 L-7,63 L-6,63 L-6,64 L-7,64 L-7,65 L-8,65 L-8,72 L-9,72 L-9,68 L-11,68 L-11,67 L-13,67 L-13,65 L-15,65 L-15,63 L-17,63 L-17,60 L-18,60 L-18,40 L-17,40 L-17,33 L-16,33 L-16,32 L-15,32 L-15,30 L-14,30 L-14,28 L-13,28 L-13,27 L-12,27 L-12,26 L-11,26 L-11,25 L-10,25 L-10,23 L-9,23 L-9,19 L-8,19 L-8,15 L-7,15 L-7,11 L-6,11 L-6,9 L-5,9 L-5,7 L-4,7 L-4,6 L-3,6 L-3,3 L-2,3 L-2,2 L-1,2 L-1,1 L0,1 Z " fill="#A4638D" transform="translate(206,165)"/>
<path d="M0,0 L2,0 L2,2 L-1,2 L-1,3 L-2,3 L-2,4 L-3,4 L-3,5 L-5,5 L-5,6 L-6,6 L-6,7 L-7,7 L-7,8 L-8,8 L-8,9 L-9,9 L-9,11 L-10,11 L-10,13 L-12,13 L-12,16 L-11,16 L-11,15 L-7,15 L-7,17 L-5,17 L-5,16 L-3,16 L-3,19 L-4,19 L-4,21 L-6,21 L-6,19 L-7,19 L-7,21 L-8,21 L-8,22 L-10,22 L-10,25 L-11,25 L-11,26 L-12,26 L-12,27 L-8,27 L-8,28 L-18,28 L-18,29 L-17,29 L-17,30 L-22,30 L-22,31 L-25,31 L-25,32 L-27,32 L-27,31 L-28,31 L-28,34 L-31,34 L-31,35 L-34,35 L-34,34 L-33,34 L-33,33 L-35,33 L-35,30 L-34,30 L-34,29 L-36,29 L-36,27 L-37,27 L-37,25 L-31,25 L-31,24 L-30,24 L-30,22 L-31,22 L-31,21 L-29,21 L-29,20 L-24,20 L-24,19 L-22,19 L-22,16 L-17,16 L-17,15 L-14,15 L-14,14 L-13,14 L-13,12 L-12,12 L-12,11 L-11,11 L-11,9 L-10,9 L-10,8 L-9,8 L-9,7 L-8,7 L-8,6 L-7,6 L-7,5 L-6,5 L-6,4 L-5,4 L-5,3 L-3,3 L-3,2 L-2,2 L-2,1 L0,1 Z " fill="#C67E93" transform="translate(250,135)"/>
<path d="M0,0 L1,0 L1,3 L0,3 L0,8 L-1,8 L-1,18 L0,18 L0,21 L1,21 L1,22 L2,22 L2,23 L3,23 L3,24 L10,24 L10,23 L13,23 L13,22 L15,22 L15,21 L16,21 L16,20 L17,20 L17,19 L18,19 L18,18 L19,18 L19,17 L20,17 L20,16 L21,16 L21,15 L22,15 L22,14 L23,14 L23,13 L24,13 L24,12 L25,12 L25,11 L26,11 L26,13 L25,13 L25,14 L24,14 L24,15 L26,15 L26,16 L23,16 L23,23 L24,23 L24,24 L25,24 L25,25 L26,25 L26,24 L29,24 L29,23 L31,23 L31,24 L32,24 L32,19 L33,19 L33,20 L34,20 L34,19 L35,19 L35,20 L38,20 L38,21 L37,21 L37,22 L35,22 L35,24 L34,24 L34,25 L32,25 L32,27 L31,27 L31,28 L30,28 L30,29 L28,29 L28,31 L27,31 L27,32 L26,32 L26,33 L24,33 L24,34 L23,34 L23,35 L21,35 L21,36 L18,36 L18,37 L15,37 L15,38 L13,38 L13,39 L9,39 L9,40 L4,40 L4,39 L0,39 L0,38 L-2,38 L-2,37 L-4,37 L-4,36 L-6,36 L-6,35 L-7,35 L-7,34 L-8,34 L-8,33 L-9,33 L-9,32 L-10,32 L-10,31 L-8,31 L-8,32 L-4,32 L-4,33 L-3,33 L-3,34 L-1,34 L-1,32 L1,32 L1,33 L2,33 L2,35 L4,35 L4,36 L5,36 L5,37 L7,37 L7,36 L9,36 L9,35 L10,35 L10,36 L11,36 L11,35 L18,35 L18,34 L21,34 L21,32 L23,32 L23,31 L21,31 L21,30 L20,30 L20,29 L17,29 L17,28 L14,28 L14,27 L15,27 L15,26 L16,26 L16,25 L13,25 L13,24 L11,24 L11,25 L2,25 L2,24 L1,24 L1,23 L0,23 L0,22 L-1,22 L-1,19 L-2,19 L-2,18 L-3,18 L-3,8 L-2,8 L-2,7 L-1,7 L-1,2 L0,2 Z " fill="#8A537C" transform="translate(222,233)"/>
<path d="M0,0 L4,0 L4,1 L6,1 L6,0 L7,0 L7,3 L8,3 L8,4 L9,4 L9,5 L14,5 L14,4 L16,4 L16,6 L15,6 L15,7 L17,7 L17,11 L16,11 L16,12 L13,12 L13,11 L11,11 L11,12 L7,12 L7,13 L8,13 L8,15 L7,15 L7,16 L21,16 L21,19 L20,19 L20,20 L26,20 L26,21 L27,21 L27,22 L26,22 L26,23 L28,23 L28,24 L30,24 L30,25 L33,25 L33,26 L34,26 L34,27 L32,27 L32,26 L29,26 L29,25 L25,25 L25,24 L11,24 L11,25 L8,25 L8,26 L4,26 L4,27 L2,27 L2,28 L1,28 L1,29 L-1,29 L-1,27 L-2,27 L-2,25 L-4,25 L-4,24 L-5,24 L-5,23 L-3,23 L-3,20 L-2,20 L-2,19 L-1,19 L-1,18 L0,18 L0,17 L-2,17 L-2,15 L0,15 L0,16 L3,16 L3,15 L5,15 L5,10 L9,10 L9,9 L11,9 L11,8 L10,8 L10,7 L9,7 L9,6 L8,6 L8,5 L7,5 L7,4 L6,4 L6,3 L4,3 L4,2 L2,2 L2,1 L0,1 Z " fill="#B06C92" transform="translate(229,194)"/>
<path d="M0,0 L3,0 L3,2 L4,2 L4,3 L6,3 L6,4 L5,4 L5,6 L6,6 L6,5 L17,5 L17,4 L20,4 L20,5 L21,5 L21,6 L22,6 L22,7 L26,7 L26,8 L25,8 L25,9 L27,9 L27,10 L28,10 L28,11 L30,11 L30,10 L31,10 L31,12 L29,12 L29,13 L32,13 L32,12 L33,12 L33,11 L32,11 L32,10 L35,10 L35,11 L36,11 L36,12 L37,12 L37,13 L36,13 L36,18 L34,18 L34,22 L32,22 L32,16 L25,16 L25,12 L23,12 L23,11 L20,11 L20,10 L19,10 L19,9 L2,9 L2,11 L1,11 L1,12 L-1,12 L-1,13 L-2,13 L-2,15 L-4,15 L-4,14 L-3,14 L-3,11 L-4,11 L-4,13 L-5,13 L-5,10 L-4,10 L-4,9 L-3,9 L-3,8 L-2,8 L-2,7 L-4,7 L-4,8 L-5,8 L-5,9 L-6,9 L-6,10 L-7,10 L-7,11 L-8,11 L-8,13 L-10,13 L-10,15 L-12,15 L-12,16 L-13,16 L-13,17 L-14,17 L-14,14 L-15,14 L-15,11 L-13,11 L-13,10 L-12,10 L-12,7 L-11,7 L-11,6 L-10,6 L-10,5 L-9,5 L-9,4 L-6,4 L-6,2 L-2,2 L-2,1 L0,1 Z " fill="#D28994" transform="translate(258,133)"/>
<path d="M0,0 L24,0 L24,1 L27,1 L27,2 L28,2 L28,3 L30,3 L30,2 L31,2 L31,1 L34,1 L34,0 L35,0 L35,2 L32,2 L32,3 L31,3 L31,4 L32,4 L32,5 L33,5 L33,6 L37,6 L37,7 L38,7 L38,8 L40,8 L40,11 L41,11 L41,18 L42,18 L42,23 L41,23 L41,20 L40,20 L40,18 L39,18 L39,16 L38,16 L38,14 L37,14 L37,13 L36,13 L36,12 L35,12 L35,10 L33,10 L33,9 L32,9 L32,8 L31,8 L31,7 L30,7 L30,6 L28,6 L28,5 L26,5 L26,4 L25,4 L25,3 L20,3 L20,2 L15,2 L15,1 L9,1 L9,2 L5,2 L5,3 L0,3 L0,5 L-3,5 L-3,6 L-5,6 L-5,7 L-2,7 L-2,8 L-3,8 L-3,9 L-2,9 L-2,11 L-3,11 L-3,13 L-5,13 L-5,16 L-7,16 L-7,15 L-8,15 L-8,19 L-7,19 L-7,31 L-8,31 L-8,35 L-9,35 L-9,37 L-10,37 L-10,40 L-11,40 L-11,41 L-13,41 L-13,39 L-12,39 L-12,37 L-11,37 L-11,36 L-10,36 L-10,33 L-9,33 L-9,30 L-8,30 L-8,23 L-9,23 L-9,19 L-10,19 L-10,16 L-11,16 L-11,14 L-12,14 L-12,13 L-13,13 L-13,11 L-14,11 L-14,10 L-15,10 L-15,9 L-16,9 L-16,8 L-17,8 L-17,7 L-18,7 L-18,6 L-12,6 L-12,12 L-10,12 L-10,8 L-8,8 L-8,3 L-6,3 L-6,2 L-5,2 L-5,1 L0,1 Z " fill="#D1898E" transform="translate(302,143)"/>
<path d="M0,0 L2,0 L2,1 L4,1 L4,2 L-1,2 L-1,4 L1,4 L1,3 L3,3 L3,4 L2,4 L2,5 L-5,5 L-5,6 L-7,6 L-7,9 L-6,9 L-6,11 L-7,11 L-7,13 L-6,13 L-6,12 L-5,12 L-5,23 L-3,23 L-3,21 L-1,21 L-1,20 L3,20 L3,21 L4,21 L4,22 L3,22 L3,24 L4,24 L4,23 L5,23 L5,25 L3,25 L3,26 L9,26 L9,25 L10,25 L10,23 L11,23 L11,24 L14,24 L14,21 L13,21 L13,20 L19,20 L19,21 L18,21 L18,22 L17,22 L17,23 L16,23 L16,24 L15,24 L15,25 L14,25 L14,26 L13,26 L13,27 L12,27 L12,28 L11,28 L11,29 L10,29 L10,30 L9,30 L9,31 L8,31 L8,32 L7,32 L7,33 L6,33 L6,34 L5,34 L5,35 L4,35 L4,36 L2,36 L2,37 L-1,37 L-1,36 L-3,36 L-3,35 L-4,35 L-4,32 L-5,32 L-5,29 L-6,29 L-6,23 L-7,23 L-7,17 L-8,17 L-8,14 L-9,14 L-9,9 L-10,9 L-10,7 L-9,7 L-9,4 L-8,4 L-8,3 L-7,3 L-7,2 L-4,2 L-4,1 L0,1 Z " fill="#955190" transform="translate(253,267)"/>
<path d="M0,0 L2,0 L2,1 L7,1 L7,2 L5,2 L5,3 L6,3 L6,4 L10,4 L10,5 L9,5 L9,6 L10,6 L10,7 L11,7 L11,8 L15,8 L15,7 L13,7 L13,6 L16,6 L16,7 L17,7 L17,8 L25,8 L25,7 L26,7 L26,6 L27,6 L27,7 L28,7 L28,9 L31,9 L31,8 L32,8 L32,7 L33,7 L33,6 L35,6 L35,7 L37,7 L37,8 L44,8 L44,9 L51,9 L51,10 L48,10 L48,11 L53,11 L53,10 L55,10 L55,9 L57,9 L57,7 L55,7 L55,8 L51,8 L51,6 L58,6 L58,4 L60,4 L60,5 L64,5 L64,6 L62,6 L62,7 L61,7 L61,8 L59,8 L59,9 L58,9 L58,10 L56,10 L56,11 L54,11 L54,12 L51,12 L51,13 L47,13 L47,14 L43,14 L43,15 L27,15 L27,14 L23,14 L23,13 L19,13 L19,12 L17,12 L17,11 L15,11 L15,10 L12,10 L12,9 L10,9 L10,8 L9,8 L9,7 L8,7 L8,6 L6,6 L6,5 L5,5 L5,4 L4,4 L4,3 L2,3 L2,2 L1,2 L1,1 L0,1 Z " fill="#A06181" transform="translate(285,238)"/>
<path d="M0,0 L2,0 L2,1 L1,1 L1,3 L4,3 L4,4 L6,4 L6,6 L7,6 L7,7 L8,7 L8,9 L9,9 L9,10 L8,10 L8,12 L4,12 L4,11 L2,11 L2,13 L-5,13 L-5,15 L-1,15 L-1,14 L1,14 L1,16 L-1,16 L-1,17 L-3,17 L-3,18 L-8,18 L-8,17 L-5,17 L-5,16 L-12,16 L-12,15 L-19,15 L-19,14 L-21,14 L-21,13 L-23,13 L-23,14 L-24,14 L-24,15 L-25,15 L-25,16 L-28,16 L-28,14 L-29,14 L-29,13 L-30,13 L-30,14 L-36,14 L-36,13 L-37,13 L-37,12 L-35,12 L-35,11 L-32,11 L-32,9 L-29,9 L-29,10 L-18,10 L-18,11 L-14,11 L-14,12 L-13,12 L-13,11 L-10,11 L-10,10 L-9,10 L-9,9 L-14,9 L-14,8 L-11,8 L-11,7 L-7,7 L-7,6 L-6,6 L-6,5 L-4,5 L-4,8 L-1,8 L-1,9 L1,9 L1,6 L0,6 L0,4 L-2,4 L-2,5 L-3,5 L-3,3 L-2,3 L-2,2 L0,2 Z " fill="#BB7794" transform="translate(341,231)"/>
<path d="M0,0 L16,0 L16,1 L22,1 L22,2 L23,2 L23,3 L22,3 L22,4 L21,4 L21,3 L17,3 L17,5 L16,5 L16,4 L13,4 L13,3 L9,3 L9,2 L7,2 L7,3 L2,3 L2,1 L1,1 L1,3 L-1,3 L-1,2 L-2,2 L-2,4 L2,4 L2,5 L8,5 L8,7 L7,7 L7,8 L14,8 L14,9 L13,9 L13,10 L18,10 L18,11 L20,11 L20,12 L21,12 L21,13 L19,13 L19,12 L-7,12 L-7,11 L-4,11 L-4,10 L-9,10 L-9,9 L-14,9 L-14,8 L-12,8 L-12,7 L-7,7 L-7,6 L-4,6 L-4,5 L-5,5 L-5,4 L-10,4 L-10,3 L-8,3 L-8,2 L-4,2 L-4,1 L0,1 Z " fill="#DA9295" transform="translate(307,131)"/>
<path d="M0,0 L9,0 L9,1 L11,1 L11,2 L6,2 L6,1 L5,1 L5,2 L-3,2 L-3,3 L-6,3 L-6,4 L-9,4 L-9,5 L-10,5 L-10,6 L-12,6 L-12,7 L-13,7 L-13,8 L-14,8 L-14,9 L-15,9 L-15,10 L-16,10 L-16,12 L-17,12 L-17,13 L-18,13 L-18,14 L-7,14 L-7,15 L-2,15 L-2,16 L1,16 L1,17 L3,17 L3,18 L6,18 L6,19 L7,19 L7,20 L5,20 L5,19 L1,19 L1,18 L-1,18 L-1,17 L-10,17 L-10,18 L-11,18 L-11,22 L-13,22 L-13,23 L-14,23 L-14,22 L-15,22 L-15,23 L-16,23 L-16,24 L-15,24 L-15,25 L-13,25 L-13,26 L-11,26 L-11,27 L-3,27 L-3,29 L-5,29 L-5,28 L-19,28 L-19,27 L-17,27 L-17,22 L-20,22 L-20,21 L-21,21 L-21,20 L-22,20 L-22,18 L-23,18 L-23,13 L-22,13 L-22,12 L-21,12 L-21,14 L-22,14 L-22,16 L-21,16 L-21,15 L-20,15 L-20,14 L-19,14 L-19,12 L-18,12 L-18,7 L-16,7 L-16,6 L-14,6 L-14,5 L-11,5 L-11,2 L-10,2 L-10,3 L-8,3 L-8,2 L-5,2 L-5,1 L0,1 Z " fill="#B57491" transform="translate(233,164)"/>
<path d="M0,0 L1,0 L1,1 L2,1 L2,3 L3,3 L3,4 L6,4 L6,5 L8,5 L8,6 L10,6 L10,7 L13,7 L13,8 L15,8 L15,9 L16,9 L16,10 L18,10 L18,11 L20,11 L20,12 L21,12 L21,13 L22,13 L22,14 L24,14 L24,15 L25,15 L25,16 L26,16 L26,17 L27,17 L27,18 L29,18 L29,19 L30,19 L30,20 L31,20 L31,21 L32,21 L32,22 L33,22 L33,23 L31,23 L31,22 L30,22 L30,21 L29,21 L29,20 L28,20 L28,19 L23,19 L23,21 L24,21 L24,22 L26,22 L26,23 L24,23 L24,24 L23,24 L23,22 L18,22 L18,24 L19,24 L19,25 L20,25 L20,26 L21,26 L21,27 L22,27 L22,26 L24,26 L24,27 L23,27 L23,28 L24,28 L24,30 L23,30 L23,31 L26,31 L26,30 L28,30 L28,32 L27,32 L27,36 L29,36 L29,38 L28,38 L28,37 L26,37 L26,36 L25,36 L25,35 L24,35 L24,34 L23,34 L23,33 L22,33 L22,32 L21,32 L21,31 L20,31 L20,30 L19,30 L19,29 L17,29 L17,28 L16,28 L16,27 L15,27 L15,26 L13,26 L13,25 L12,25 L12,24 L11,24 L11,23 L9,23 L9,22 L7,22 L7,21 L11,21 L11,22 L16,22 L16,20 L15,20 L15,19 L16,19 L16,18 L17,18 L17,17 L18,17 L18,16 L17,16 L17,15 L15,15 L15,14 L16,14 L16,13 L17,13 L17,14 L19,14 L19,12 L15,12 L15,10 L14,10 L14,9 L12,9 L12,8 L10,8 L10,9 L9,9 L9,7 L6,7 L6,6 L1,6 L1,4 L0,4 Z " fill="#AB6D8A" transform="translate(256,200)"/>
<path d="M0,0 L1,0 L1,4 L2,4 L2,5 L3,5 L3,6 L2,6 L2,8 L3,8 L3,7 L4,7 L4,6 L6,6 L6,7 L5,7 L5,8 L7,8 L7,10 L8,10 L8,9 L9,9 L9,5 L17,5 L17,6 L15,6 L15,7 L29,7 L29,8 L30,8 L30,9 L26,9 L26,8 L18,8 L18,9 L15,9 L15,10 L13,10 L13,11 L12,11 L12,12 L7,12 L7,11 L6,11 L6,13 L5,13 L5,17 L4,17 L4,18 L3,18 L3,19 L-1,19 L-1,21 L-2,21 L-2,22 L-3,22 L-3,16 L-4,16 L-4,17 L-5,17 L-5,19 L-6,19 L-6,13 L-7,13 L-7,11 L-6,11 L-6,9 L-5,9 L-5,8 L-4,8 L-4,7 L-3,7 L-3,6 L-2,6 L-2,5 L-1,5 L-1,4 L0,4 Z " fill="#B06E90" transform="translate(199,185)"/>
<path d="M0,0 L1,0 L1,5 L0,5 L0,25 L1,25 L1,28 L3,28 L3,30 L5,30 L5,32 L7,32 L7,33 L9,33 L9,40 L11,40 L11,41 L12,41 L12,42 L13,42 L13,44 L15,44 L15,45 L14,45 L14,46 L16,46 L16,45 L17,45 L17,44 L19,44 L19,45 L21,45 L21,47 L19,47 L19,48 L20,48 L20,53 L21,53 L21,54 L22,54 L22,57 L23,57 L23,56 L24,56 L24,58 L23,58 L23,61 L24,61 L24,64 L23,64 L23,63 L22,63 L22,61 L21,61 L21,59 L20,59 L20,57 L19,57 L19,52 L18,52 L18,50 L17,50 L17,49 L16,49 L16,48 L14,48 L14,47 L12,47 L12,46 L11,46 L11,45 L10,45 L10,44 L9,44 L9,43 L8,43 L8,42 L7,42 L7,40 L5,40 L5,38 L4,38 L4,36 L3,36 L3,35 L2,35 L2,33 L1,33 L1,31 L0,31 L0,28 L-1,28 L-1,25 L-2,25 L-2,21 L-3,21 L-3,10 L-2,10 L-2,6 L-1,6 L-1,3 L0,3 Z " fill="#9A5D8A" transform="translate(188,200)"/>
<path d="M0,0 L4,0 L4,1 L5,1 L5,6 L7,6 L7,7 L8,7 L8,8 L9,8 L9,10 L16,10 L16,11 L15,11 L15,12 L13,12 L13,13 L12,13 L12,14 L16,14 L16,18 L15,18 L15,20 L14,20 L14,21 L8,21 L8,20 L10,20 L10,18 L9,18 L9,19 L8,19 L8,17 L9,17 L9,16 L8,16 L8,15 L4,15 L4,16 L2,16 L2,18 L0,18 L0,7 L-1,7 L-1,8 L-2,8 L-2,6 L-1,6 L-1,4 L-2,4 L-2,1 L0,1 Z " fill="#9A5592" transform="translate(248,272)"/>
<path d="M0,0 L2,0 L2,1 L4,1 L4,3 L2,3 L2,5 L3,5 L3,6 L2,6 L2,7 L5,7 L5,9 L4,9 L4,13 L3,13 L3,11 L2,11 L2,10 L1,10 L1,12 L0,12 L0,13 L-2,13 L-2,12 L-3,12 L-3,14 L2,14 L2,15 L3,15 L3,18 L2,18 L2,16 L1,16 L1,17 L0,17 L0,19 L1,19 L1,20 L-3,20 L-3,21 L-5,21 L-5,22 L-6,22 L-6,23 L-7,23 L-7,22 L-8,22 L-8,21 L-11,21 L-11,20 L-9,20 L-9,18 L-10,18 L-10,19 L-11,19 L-11,16 L-12,16 L-12,20 L-13,20 L-13,21 L-14,21 L-14,22 L-15,22 L-15,21 L-16,21 L-16,20 L-18,20 L-18,18 L-17,18 L-17,17 L-16,17 L-16,16 L-14,16 L-14,15 L-11,15 L-11,14 L-10,14 L-10,15 L-9,15 L-9,14 L-8,14 L-8,13 L-7,13 L-7,12 L-6,12 L-6,11 L-3,11 L-3,9 L-2,9 L-2,7 L-3,7 L-3,5 L-2,5 L-2,3 L-1,3 L-1,2 L0,2 Z " fill="#CB8695" transform="translate(344,187)"/>
<path d="M0,0 L1,0 L1,1 L3,1 L3,2 L4,2 L4,3 L5,3 L5,4 L6,4 L6,5 L7,5 L7,6 L8,6 L8,7 L9,7 L9,8 L10,8 L10,9 L11,9 L11,10 L12,10 L12,11 L13,11 L13,13 L14,13 L14,14 L15,14 L15,16 L14,16 L14,15 L13,15 L13,14 L12,14 L12,16 L13,16 L13,19 L14,19 L14,22 L15,22 L15,25 L12,25 L12,23 L10,23 L10,24 L9,24 L9,21 L8,21 L8,23 L7,23 L7,25 L6,25 L6,23 L4,23 L4,24 L3,24 L3,22 L4,22 L4,21 L5,21 L5,17 L3,17 L3,16 L4,16 L4,14 L2,14 L2,15 L-3,15 L-3,14 L-4,14 L-4,12 L-3,12 L-3,8 L-1,8 L-1,9 L-2,9 L-2,10 L-1,10 L-1,11 L2,11 L2,10 L3,10 L3,13 L6,13 L6,14 L8,14 L8,12 L7,12 L7,11 L6,11 L6,10 L4,10 L4,7 L5,7 L5,8 L6,8 L6,6 L5,6 L5,5 L2,5 L2,2 L0,2 Z " fill="#B87292" transform="translate(241,184)"/>
<path d="M0,0 L2,0 L2,4 L3,4 L3,8 L4,8 L4,17 L3,17 L3,20 L5,20 L5,17 L6,17 L6,16 L7,16 L7,17 L8,17 L8,19 L9,19 L9,24 L10,24 L10,26 L11,26 L11,25 L12,25 L12,28 L13,28 L13,26 L14,26 L14,23 L15,23 L15,20 L16,20 L16,3 L17,3 L17,8 L18,8 L18,16 L17,16 L17,21 L16,21 L16,24 L15,24 L15,27 L14,27 L14,29 L13,29 L13,31 L12,31 L12,32 L11,32 L11,34 L10,34 L10,36 L9,36 L9,37 L8,37 L8,38 L7,38 L7,39 L6,39 L6,40 L5,40 L5,36 L6,36 L6,35 L7,35 L7,34 L6,34 L6,33 L8,33 L8,34 L9,34 L9,32 L7,32 L7,31 L8,31 L8,30 L10,30 L10,31 L11,31 L11,27 L8,27 L8,28 L4,28 L4,26 L6,26 L6,25 L8,25 L8,24 L7,24 L7,23 L6,23 L6,24 L5,24 L5,22 L3,22 L3,21 L2,21 L2,24 L1,24 L1,25 L0,25 L0,28 L-1,28 L-1,29 L0,29 L0,30 L-1,30 L-1,31 L-2,31 L-2,29 L-3,29 L-3,30 L-5,30 L-5,31 L-6,31 L-6,32 L-8,32 L-8,31 L-7,31 L-7,30 L-6,30 L-6,29 L-5,29 L-5,28 L-4,28 L-4,27 L-3,27 L-3,26 L-2,26 L-2,25 L-1,25 L-1,24 L0,24 L0,21 L1,21 L1,18 L2,18 L2,15 L3,15 L3,9 L2,9 L2,5 L1,5 L1,2 L0,2 Z " fill="#A46A6F" transform="translate(374,176)"/>
<path d="M0,0 L2,0 L2,1 L3,1 L3,2 L4,2 L4,3 L6,3 L6,4 L7,4 L7,5 L8,5 L8,7 L9,7 L9,8 L10,8 L10,9 L8,9 L8,8 L7,8 L7,10 L5,10 L5,11 L7,11 L7,13 L4,13 L4,14 L0,14 L0,16 L-1,16 L-1,18 L0,18 L0,20 L-1,20 L-1,19 L-2,19 L-2,17 L-3,17 L-3,16 L-4,16 L-4,15 L-5,15 L-5,14 L-6,14 L-6,13 L-7,13 L-7,12 L-8,12 L-8,11 L-10,11 L-10,9 L-7,9 L-7,10 L-6,10 L-6,8 L-7,8 L-7,7 L-6,7 L-6,6 L-7,6 L-7,5 L-5,5 L-5,2 L-4,2 L-4,1 L-3,1 L-3,2 L-2,2 L-2,1 L-1,1 L-1,2 L0,2 Z " fill="#D99290" transform="translate(374,156)"/>
<path d="M0,0 L5,0 L5,1 L14,1 L14,2 L16,2 L16,3 L18,3 L18,4 L21,4 L21,5 L23,5 L23,6 L24,6 L24,5 L26,5 L26,7 L21,7 L21,6 L19,6 L19,7 L18,7 L18,8 L17,8 L17,7 L14,7 L14,6 L11,6 L11,5 L10,5 L10,6 L9,6 L9,7 L8,7 L8,8 L-3,8 L-3,9 L-4,9 L-4,7 L-3,7 L-3,6 L-5,6 L-5,5 L-6,5 L-6,3 L-9,3 L-9,4 L-11,4 L-11,5 L-15,5 L-15,4 L-13,4 L-13,3 L-11,3 L-11,2 L-8,2 L-8,1 L0,1 Z " fill="#BB7A82" transform="translate(267,130)"/>
<path d="M0,0 L1,0 L1,1 L3,1 L3,6 L2,6 L2,8 L1,8 L1,9 L-1,9 L-1,12 L0,12 L0,13 L1,13 L1,14 L0,14 L0,27 L3,27 L3,28 L4,28 L4,29 L5,29 L5,28 L6,28 L6,30 L5,30 L5,31 L4,31 L4,34 L5,34 L5,36 L6,36 L6,34 L7,34 L7,38 L6,38 L6,40 L5,40 L5,37 L4,37 L4,38 L3,38 L3,36 L2,36 L2,31 L1,31 L1,29 L0,29 L0,28 L-1,28 L-1,29 L-2,29 L-2,32 L-4,32 L-4,29 L-3,29 L-3,20 L-4,20 L-4,16 L-5,16 L-5,12 L-7,12 L-7,10 L-8,10 L-8,8 L-7,8 L-7,6 L-3,6 L-3,5 L0,5 L0,3 L-2,3 L-2,2 L0,2 Z " fill="#D69195" transform="translate(381,164)"/>
<path d="M0,0 L2,0 L2,5 L3,5 L3,7 L5,7 L5,6 L4,6 L4,4 L7,4 L7,5 L8,5 L8,7 L12,7 L12,6 L17,6 L17,7 L20,7 L20,8 L17,8 L17,9 L15,9 L15,11 L14,11 L14,12 L15,12 L15,13 L16,13 L16,14 L24,14 L24,16 L28,16 L28,17 L36,17 L36,18 L30,18 L30,19 L24,19 L24,18 L19,18 L19,17 L15,17 L15,16 L13,16 L13,15 L11,15 L11,14 L10,14 L10,13 L8,13 L8,12 L6,12 L6,11 L5,11 L5,10 L4,10 L4,9 L3,9 L3,8 L2,8 L2,7 L1,7 L1,6 L0,6 L0,5 L-1,5 L-1,3 L-2,3 L-2,2 L-3,2 L-3,1 L-1,1 L-1,2 L1,2 L1,1 L0,1 Z " fill="#BF7C95" transform="translate(287,202)"/>
<path d="M0,0 L1,0 L1,2 L3,2 L3,5 L5,5 L5,11 L6,11 L6,13 L7,13 L7,14 L8,14 L8,15 L11,15 L11,19 L3,19 L3,23 L2,23 L2,24 L1,24 L1,22 L-1,22 L-1,21 L0,21 L0,20 L-2,20 L-2,19 L-1,19 L-1,18 L1,18 L1,16 L-4,16 L-4,15 L-3,15 L-3,11 L-4,11 L-4,8 L-3,8 L-3,4 L-2,4 L-2,3 L-1,3 L-1,2 L0,2 Z " fill="#B77093" transform="translate(205,171)"/>
<path d="M0,0 L1,0 L1,1 L2,1 L2,2 L4,2 L4,5 L3,5 L3,14 L2,14 L2,16 L6,16 L6,20 L7,20 L7,21 L6,21 L6,22 L5,22 L5,29 L4,29 L4,25 L2,25 L2,24 L0,24 L0,22 L-2,22 L-2,20 L-4,20 L-4,17 L-5,17 L-5,13 L-4,13 L-4,10 L-3,10 L-3,8 L-2,8 L-2,3 L-1,3 L-1,2 L0,2 Z " fill="#A36093" transform="translate(193,208)"/>
<path d="M0,0 L1,0 L1,1 L2,1 L2,0 L3,0 L3,1 L6,1 L6,2 L5,2 L5,3 L3,3 L3,5 L2,5 L2,6 L0,6 L0,8 L-1,8 L-1,9 L-2,9 L-2,10 L-4,10 L-4,12 L-5,12 L-5,13 L-6,13 L-6,14 L-8,14 L-8,15 L-9,15 L-9,16 L-11,16 L-11,17 L-14,17 L-14,18 L-17,18 L-17,19 L-19,19 L-19,20 L-23,20 L-23,21 L-28,21 L-28,20 L-32,20 L-32,19 L-34,19 L-34,18 L-36,18 L-36,17 L-38,17 L-38,16 L-39,16 L-39,15 L-40,15 L-40,14 L-41,14 L-41,13 L-42,13 L-42,12 L-40,12 L-40,13 L-36,13 L-36,14 L-35,14 L-35,15 L-33,15 L-33,13 L-31,13 L-31,14 L-30,14 L-30,16 L-28,16 L-28,17 L-27,17 L-27,18 L-25,18 L-25,17 L-23,17 L-23,16 L-22,16 L-22,17 L-21,17 L-21,16 L-14,16 L-14,15 L-11,15 L-11,13 L-7,13 L-7,10 L-5,10 L-5,9 L-7,9 L-7,8 L-2,8 L-2,6 L-3,6 L-3,4 L-1,4 L-1,5 L0,5 Z " fill="#7F4A74" transform="translate(254,252)"/>
<path d="M0,0 L2,0 L2,1 L1,1 L1,2 L0,2 L0,3 L-1,3 L-1,6 L0,6 L0,4 L1,4 L1,7 L0,7 L0,8 L2,8 L2,6 L3,6 L3,5 L5,5 L5,4 L6,4 L6,2 L23,2 L23,3 L24,3 L24,4 L27,4 L27,5 L29,5 L29,9 L28,9 L28,8 L26,8 L26,7 L24,7 L24,6 L7,6 L7,7 L6,7 L6,8 L4,8 L4,9 L2,9 L2,10 L0,10 L0,12 L-1,12 L-1,13 L0,13 L0,14 L2,14 L2,15 L-4,15 L-4,12 L-3,12 L-3,10 L-4,10 L-4,8 L-2,8 L-2,5 L-3,5 L-3,7 L-5,7 L-5,8 L-6,8 L-6,6 L-4,6 L-4,4 L-3,4 L-3,3 L-2,3 L-2,2 L-1,2 L-1,1 L0,1 Z " fill="#AF757E" transform="translate(254,140)"/>
<path d="M0,0 L3,0 L3,1 L5,1 L5,2 L7,2 L7,3 L9,3 L9,4 L10,4 L10,5 L12,5 L12,6 L13,6 L13,7 L15,7 L15,8 L16,8 L16,10 L18,10 L18,11 L19,11 L19,12 L20,12 L20,14 L21,14 L21,15 L22,15 L22,16 L23,16 L23,17 L33,17 L33,18 L36,18 L36,19 L38,19 L38,20 L40,20 L40,21 L42,21 L42,22 L44,22 L44,23 L45,23 L45,24 L43,24 L43,23 L41,23 L41,22 L35,22 L35,21 L34,21 L34,20 L33,20 L33,19 L20,19 L20,21 L18,21 L18,20 L19,20 L19,19 L17,19 L17,18 L18,18 L18,17 L19,17 L19,16 L18,16 L18,14 L17,14 L17,13 L12,13 L12,12 L11,12 L11,11 L10,11 L10,10 L8,10 L8,8 L9,8 L9,5 L4,5 L4,4 L5,4 L5,3 L3,3 L3,4 L-1,4 L-1,3 L0,3 L0,2 L1,2 L1,1 L0,1 Z " fill="#B67E82" transform="translate(329,132)"/>
<path d="M0,0 L7,0 L7,2 L6,2 L6,3 L8,3 L8,4 L7,4 L7,5 L8,5 L8,6 L9,6 L9,4 L10,4 L10,5 L11,5 L11,6 L13,6 L13,8 L14,8 L14,9 L16,9 L16,8 L15,8 L15,6 L17,6 L17,8 L19,8 L19,9 L18,9 L18,10 L17,10 L17,12 L16,12 L16,13 L15,13 L15,14 L14,14 L14,15 L13,15 L13,16 L12,16 L12,17 L11,17 L11,18 L10,18 L10,19 L9,19 L9,17 L10,17 L10,16 L9,16 L9,14 L8,14 L8,13 L7,13 L7,11 L5,11 L5,10 L2,10 L2,8 L3,8 L3,7 L1,7 L1,6 L2,6 L2,5 L3,5 L3,4 L4,4 L4,3 L5,3 L5,2 L3,2 L3,1 L0,1 Z " fill="#C57A91" transform="translate(340,224)"/>
<path d="M0,0 L2,0 L2,1 L1,1 L1,2 L2,2 L2,5 L1,5 L1,7 L2,7 L2,8 L3,8 L3,10 L2,10 L2,11 L1,11 L1,10 L0,10 L0,15 L-1,15 L-1,14 L-3,14 L-3,15 L-6,15 L-6,16 L-7,16 L-7,15 L-8,15 L-8,14 L-9,14 L-9,7 L-6,7 L-6,6 L-8,6 L-8,5 L-7,5 L-7,4 L-6,4 L-6,2 L-2,2 L-2,1 L0,1 Z " fill="#A66194" transform="translate(254,242)"/>
<path d="M0,0 L1,0 L1,2 L-1,2 L-1,3 L-2,3 L-2,5 L-1,5 L-1,4 L1,4 L1,6 L2,6 L2,9 L0,9 L0,8 L-3,8 L-3,5 L-5,5 L-5,6 L-6,6 L-6,7 L-10,7 L-10,8 L-13,8 L-13,9 L-8,9 L-8,10 L-9,10 L-9,11 L-12,11 L-12,12 L-13,12 L-13,11 L-17,11 L-17,10 L-28,10 L-28,9 L-30,9 L-30,7 L-32,7 L-32,8 L-33,8 L-33,6 L-35,6 L-35,5 L-36,5 L-36,4 L-34,4 L-34,5 L-32,5 L-32,6 L-28,6 L-28,7 L-22,7 L-22,8 L-18,8 L-18,7 L-13,7 L-13,6 L-9,6 L-9,5 L-6,5 L-6,4 L-5,4 L-5,3 L-3,3 L-3,2 L-2,2 L-2,1 L0,1 Z " fill="#996077" transform="translate(340,231)"/>
<path d="M0,0 L5,0 L5,1 L6,1 L6,2 L7,2 L7,3 L8,3 L8,4 L10,4 L10,6 L11,6 L11,8 L10,8 L10,7 L8,7 L8,9 L7,9 L7,12 L8,12 L8,13 L10,13 L10,15 L8,15 L8,14 L5,14 L5,11 L3,11 L3,12 L0,12 L0,11 L1,11 L1,9 L0,9 L0,8 L1,8 L1,7 L-1,7 L-1,8 L-2,8 L-2,7 L-3,7 L-3,6 L-4,6 L-4,5 L-5,5 L-5,3 L0,3 L0,5 L1,5 L1,4 L3,4 L3,3 L1,3 L1,2 L0,2 Z " fill="#B87394" transform="translate(279,219)"/>
<path d="M0,0 L3,0 L3,1 L5,1 L5,2 L6,2 L6,3 L10,3 L10,4 L11,4 L11,5 L9,5 L9,4 L8,4 L8,5 L7,5 L7,6 L6,6 L6,4 L5,4 L5,5 L4,5 L4,7 L5,7 L5,8 L3,8 L3,9 L2,9 L2,12 L-1,12 L-1,13 L-4,13 L-4,12 L-3,12 L-3,11 L-5,11 L-5,8 L-4,8 L-4,7 L-6,7 L-6,5 L-7,5 L-7,3 L-1,3 L-1,2 L0,2 Z " fill="#C27A91" transform="translate(220,157)"/>
<path d="M0,0 L1,0 L1,2 L2,2 L2,3 L3,3 L3,5 L4,5 L4,7 L5,7 L5,10 L6,10 L6,31 L5,31 L5,34 L4,34 L4,33 L3,33 L3,35 L2,35 L2,33 L1,33 L1,30 L2,30 L2,29 L3,29 L3,27 L2,27 L2,28 L1,28 L1,27 L0,27 L0,26 L-1,26 L-1,24 L0,24 L0,19 L2,19 L2,21 L4,21 L4,27 L5,27 L5,11 L4,11 L4,12 L3,12 L3,10 L2,10 L2,8 L0,8 Z " fill="#D08C8F" transform="translate(384,165)"/>
<path d="M0,0 L2,0 L2,1 L6,1 L6,2 L4,2 L4,3 L3,3 L3,4 L1,4 L1,5 L0,5 L0,6 L-2,6 L-2,7 L-4,7 L-4,8 L-13,8 L-13,9 L-21,9 L-21,8 L-25,8 L-25,7 L-23,7 L-23,4 L-14,4 L-14,5 L-7,5 L-7,6 L-10,6 L-10,7 L-5,7 L-5,6 L-3,6 L-3,5 L-1,5 L-1,3 L-3,3 L-3,4 L-7,4 L-7,2 L0,2 Z " fill="#B57493" transform="translate(343,242)"/>
<path d="M0,0 L3,0 L3,2 L4,2 L4,4 L6,4 L6,3 L7,3 L7,2 L9,2 L9,1 L11,1 L11,2 L10,2 L10,3 L8,3 L8,4 L7,4 L7,5 L6,5 L6,6 L5,6 L5,7 L4,7 L4,8 L3,8 L3,9 L2,9 L2,10 L1,10 L1,13 L0,13 L0,14 L-2,14 L-2,16 L-3,16 L-3,21 L-4,21 L-4,22 L-5,22 L-5,16 L-4,16 L-4,12 L-5,12 L-5,10 L-4,10 L-4,6 L-3,6 L-3,5 L-2,5 L-2,4 L-1,4 L-1,6 L0,6 L0,5 L1,5 L1,3 L0,3 Z " fill="#A06389" transform="translate(224,219)"/>
<path d="M0,0 L1,0 L1,2 L0,2 L0,3 L-1,3 L-1,8 L-2,8 L-2,9 L-3,9 L-3,10 L-4,10 L-4,14 L-5,14 L-5,17 L-4,17 L-4,21 L-5,21 L-5,22 L0,22 L0,24 L-2,24 L-2,25 L-3,25 L-3,27 L-4,27 L-4,28 L-5,28 L-5,26 L-4,26 L-4,25 L-5,25 L-5,24 L-6,24 L-6,20 L-7,20 L-7,24 L-8,24 L-8,25 L-9,25 L-9,26 L-10,26 L-10,27 L-11,27 L-11,28 L-12,28 L-12,29 L-13,29 L-13,31 L-14,31 L-14,32 L-15,32 L-15,30 L-14,30 L-14,28 L-13,28 L-13,27 L-12,27 L-12,26 L-11,26 L-11,25 L-10,25 L-10,23 L-9,23 L-9,19 L-8,19 L-8,15 L-7,15 L-7,11 L-6,11 L-6,9 L-5,9 L-5,7 L-4,7 L-4,6 L-3,6 L-3,3 L-2,3 L-2,2 L-1,2 L-1,1 L0,1 Z " fill="#AF6E8E" transform="translate(206,165)"/>
<path d="M0,0 L1,0 L1,6 L3,6 L3,7 L2,7 L2,9 L1,9 L1,11 L0,11 L0,12 L-1,12 L-1,13 L-2,13 L-2,15 L-1,15 L-1,17 L0,17 L0,18 L-2,18 L-2,17 L-3,17 L-3,16 L-4,16 L-4,18 L-5,18 L-5,19 L-9,19 L-9,16 L-8,16 L-8,13 L-9,13 L-9,10 L-8,10 L-8,9 L-7,9 L-7,7 L-6,7 L-6,10 L-4,10 L-4,8 L-3,8 L-3,9 L-2,9 L-2,10 L-3,10 L-3,11 L-1,11 L-1,6 L-2,6 L-2,5 L-3,5 L-3,4 L-4,4 L-4,1 L-2,1 L-2,3 L0,3 Z " fill="#C77C90" transform="translate(300,182)"/>
<path d="M0,0 L5,0 L5,1 L7,1 L7,2 L8,2 L8,5 L6,5 L6,7 L4,7 L4,11 L3,11 L3,12 L2,12 L2,13 L1,13 L1,14 L0,14 L0,15 L-1,15 L-1,16 L-2,16 L-2,14 L-1,14 L-1,13 L-3,13 L-3,7 L-2,7 L-2,5 L-3,5 L-3,3 L-1,3 L-1,5 L0,5 L0,3 L1,3 L1,2 L0,2 Z " fill="#AA6992" transform="translate(287,252)"/>
<path d="M0,0 L3,0 L3,6 L2,6 L2,8 L3,8 L3,11 L2,11 L2,12 L1,12 L1,13 L0,13 L0,12 L-1,12 L-1,22 L-2,22 L-2,21 L-3,21 L-3,28 L-1,28 L-1,29 L0,29 L0,30 L-2,30 L-2,31 L-5,31 L-5,33 L-6,33 L-6,30 L-5,30 L-5,26 L-4,26 L-4,14 L-5,14 L-5,10 L-4,10 L-4,11 L-2,11 L-2,8 L0,8 L0,6 L1,6 L1,4 L0,4 L0,3 L1,3 L1,2 L-2,2 L-2,1 L0,1 Z " fill="#D08B97" transform="translate(299,148)"/>
<path d="M0,0 L2,0 L2,5 L3,5 L3,2 L4,2 L4,3 L5,3 L5,6 L7,6 L7,8 L5,8 L5,9 L6,9 L6,11 L5,11 L5,10 L4,10 L4,13 L2,13 L2,15 L1,15 L1,16 L0,16 L0,10 L-1,10 L-1,11 L-2,11 L-2,13 L-3,13 L-3,7 L-4,7 L-4,5 L-3,5 L-3,3 L-2,3 L-2,2 L-1,2 L-1,1 L0,1 Z " fill="#AE6892" transform="translate(196,191)"/>
<path d="M0,0 L6,0 L6,1 L5,1 L5,2 L4,2 L4,3 L3,3 L3,4 L2,4 L2,5 L1,5 L1,6 L0,6 L0,7 L-1,7 L-1,8 L-2,8 L-2,9 L-3,9 L-3,10 L-4,10 L-4,11 L-5,11 L-5,12 L-6,12 L-6,13 L-7,13 L-7,14 L-8,14 L-8,15 L-9,15 L-9,16 L-11,16 L-11,17 L-14,17 L-14,16 L-16,16 L-16,15 L-17,15 L-17,12 L-18,12 L-18,9 L-19,9 L-19,4 L-18,4 L-18,5 L-17,5 L-17,9 L-16,9 L-16,13 L-15,13 L-15,15 L-11,15 L-11,13 L-8,13 L-8,9 L-7,9 L-7,8 L-6,8 L-6,7 L-5,7 L-5,6 L-4,6 L-4,5 L-3,5 L-3,3 L-2,3 L-2,4 L1,4 L1,1 L0,1 Z " fill="#724469" transform="translate(266,287)"/>
<path d="M0,0 L4,0 L4,1 L6,1 L6,4 L8,4 L8,6 L12,6 L12,7 L11,7 L11,8 L12,8 L12,9 L13,9 L13,11 L14,11 L14,12 L15,12 L15,13 L16,13 L16,14 L17,14 L17,16 L18,16 L18,15 L19,15 L19,16 L21,16 L21,18 L22,18 L22,22 L24,22 L24,25 L25,25 L25,26 L26,26 L26,27 L27,27 L27,28 L29,28 L29,32 L28,32 L28,31 L27,31 L27,30 L26,30 L26,29 L25,29 L25,27 L24,27 L24,26 L23,26 L23,25 L22,25 L22,23 L21,23 L21,22 L20,22 L20,20 L19,20 L19,19 L18,19 L18,18 L17,18 L17,17 L16,17 L16,15 L15,15 L15,14 L14,14 L14,13 L13,13 L13,12 L12,12 L12,11 L11,11 L11,10 L10,10 L10,8 L8,8 L8,7 L7,7 L7,6 L6,6 L6,5 L5,5 L5,4 L4,4 L4,3 L3,3 L3,2 L1,2 L1,1 L0,1 Z " fill="#7F5361" transform="translate(255,171)"/>
<path d="M0,0 L1,0 L1,1 L2,1 L2,3 L3,3 L3,8 L2,8 L2,9 L1,9 L1,10 L-1,10 L-1,12 L-3,12 L-3,13 L-4,13 L-4,14 L-5,14 L-5,15 L-6,15 L-6,16 L-7,16 L-7,17 L-8,17 L-8,18 L-9,18 L-9,19 L-10,19 L-10,15 L-8,15 L-8,14 L-9,14 L-9,13 L-8,13 L-8,12 L-7,12 L-7,11 L-6,11 L-6,10 L-5,10 L-5,9 L-4,9 L-4,5 L-2,5 L-2,3 L0,3 Z " fill="#A76B8C" transform="translate(295,254)"/>
<path d="M0,0 L9,0 L9,1 L11,1 L11,2 L6,2 L6,1 L5,1 L5,2 L-3,2 L-3,3 L-6,3 L-6,4 L-9,4 L-9,5 L-10,5 L-10,6 L-12,6 L-12,7 L-13,7 L-13,8 L-14,8 L-14,9 L-15,9 L-15,10 L-16,10 L-16,12 L-17,12 L-17,13 L-18,13 L-18,14 L-7,14 L-7,15 L-18,15 L-18,16 L-19,16 L-19,17 L-20,17 L-20,14 L-19,14 L-19,12 L-18,12 L-18,7 L-16,7 L-16,6 L-14,6 L-14,5 L-11,5 L-11,2 L-10,2 L-10,3 L-8,3 L-8,2 L-5,2 L-5,1 L0,1 Z " fill="#824C63" transform="translate(233,164)"/>
<path d="M0,0 L1,0 L1,2 L-2,2 L-2,3 L-3,3 L-3,4 L-2,4 L-2,5 L-1,5 L-1,6 L3,6 L3,7 L4,7 L4,8 L6,8 L6,11 L7,11 L7,18 L8,18 L8,23 L7,23 L7,20 L6,20 L6,18 L5,18 L5,16 L4,16 L4,14 L3,14 L3,13 L2,13 L2,12 L1,12 L1,10 L-1,10 L-1,9 L-2,9 L-2,8 L-3,8 L-3,7 L-4,7 L-4,4 L-5,4 L-5,3 L-4,3 L-4,2 L-3,2 L-3,1 L0,1 Z " fill="#D79598" transform="translate(336,143)"/>
<path d="M0,0 L1,0 L1,2 L0,2 L0,3 L-1,3 L-1,4 L-2,4 L-2,5 L-3,5 L-3,6 L-4,6 L-4,7 L-5,7 L-5,10 L-6,10 L-6,12 L-7,12 L-7,13 L-8,13 L-8,14 L-9,14 L-9,13 L-11,13 L-11,14 L-12,14 L-12,15 L-13,15 L-13,20 L-18,20 L-18,21 L-19,21 L-19,22 L-21,22 L-21,17 L-22,17 L-22,11 L-21,11 L-21,16 L-20,16 L-20,19 L-18,19 L-18,18 L-17,18 L-17,17 L-16,17 L-16,16 L-15,16 L-15,15 L-14,15 L-14,14 L-13,14 L-13,13 L-12,13 L-12,12 L-11,12 L-11,11 L-10,11 L-10,10 L-9,10 L-9,9 L-8,9 L-8,8 L-7,8 L-7,7 L-6,7 L-6,6 L-5,6 L-5,5 L-4,5 L-4,4 L-3,4 L-3,3 L-2,3 L-2,2 L-1,2 L-1,1 L0,1 Z " fill="#704063" transform="translate(279,258)"/>
<path d="M0,0 L1,0 L1,1 L4,1 L4,2 L3,2 L3,3 L2,3 L2,4 L1,4 L1,5 L0,5 L0,7 L-1,7 L-1,8 L-2,8 L-2,11 L-3,11 L-3,13 L-4,13 L-4,18 L-5,18 L-5,22 L-4,22 L-4,27 L-5,27 L-5,25 L-6,25 L-6,26 L-7,26 L-7,8 L-3,8 L-3,7 L-2,7 L-2,6 L-1,6 L-1,2 L0,2 Z " fill="#8C5977" transform="translate(205,196)"/>
<path d="M0,0 L4,0 L4,1 L6,1 L6,0 L7,0 L7,3 L8,3 L8,4 L9,4 L9,5 L14,5 L14,4 L16,4 L16,6 L15,6 L15,7 L17,7 L17,11 L16,11 L16,12 L13,12 L13,11 L11,11 L11,12 L7,12 L7,11 L5,11 L5,10 L9,10 L9,9 L11,9 L11,8 L10,8 L10,7 L9,7 L9,6 L8,6 L8,5 L7,5 L7,4 L6,4 L6,3 L4,3 L4,2 L2,2 L2,1 L0,1 Z " fill="#9E667E" transform="translate(229,194)"/>
<path d="M0,0 L2,0 L2,1 L4,1 L4,2 L-1,2 L-1,4 L1,4 L1,3 L3,3 L3,4 L2,4 L2,5 L-5,5 L-5,6 L-7,6 L-7,9 L-6,9 L-6,11 L-7,11 L-7,14 L-6,14 L-6,23 L-7,23 L-7,17 L-8,17 L-8,14 L-9,14 L-9,9 L-10,9 L-10,7 L-9,7 L-9,4 L-8,4 L-8,3 L-7,3 L-7,2 L-4,2 L-4,1 L0,1 Z " fill="#78476A" transform="translate(253,267)"/>
<path d="M0,0 L2,0 L2,1 L1,1 L1,2 L2,2 L2,3 L3,3 L3,4 L11,4 L11,6 L15,6 L15,7 L23,7 L23,8 L17,8 L17,9 L11,9 L11,8 L6,8 L6,7 L2,7 L2,6 L0,6 L0,5 L-2,5 L-2,4 L-3,4 L-3,3 L0,3 L0,2 L-1,2 L-1,1 L0,1 Z " fill="#986476" transform="translate(300,212)"/>
<path d="M0,0 L2,0 L2,2 L-1,2 L-1,3 L-2,3 L-2,4 L-3,4 L-3,5 L-5,5 L-5,6 L-6,6 L-6,7 L-7,7 L-7,8 L-8,8 L-8,9 L-9,9 L-9,11 L-10,11 L-10,13 L-12,13 L-12,16 L-11,16 L-11,15 L-7,15 L-7,17 L-5,17 L-5,16 L-3,16 L-3,19 L-4,19 L-4,21 L-6,21 L-6,19 L-8,19 L-8,16 L-10,16 L-10,17 L-22,17 L-22,16 L-17,16 L-17,15 L-14,15 L-14,14 L-13,14 L-13,12 L-12,12 L-12,11 L-11,11 L-11,9 L-10,9 L-10,8 L-9,8 L-9,7 L-8,7 L-8,6 L-7,6 L-7,5 L-6,5 L-6,4 L-5,4 L-5,3 L-3,3 L-3,2 L-2,2 L-2,1 L0,1 Z " fill="#976571" transform="translate(250,135)"/>
<path d="M0,0 L1,0 L1,5 L0,5 L0,25 L1,25 L1,29 L2,29 L2,33 L1,33 L1,31 L0,31 L0,28 L-1,28 L-1,25 L-2,25 L-2,21 L-3,21 L-3,10 L-2,10 L-2,6 L-1,6 L-1,3 L0,3 Z " fill="#7A4F6D" transform="translate(188,200)"/>
<path d="M0,0 L7,0 L7,1 L8,1 L8,2 L6,2 L6,1 L1,1 L1,3 L2,3 L2,4 L1,4 L1,6 L0,6 L0,4 L-2,4 L-2,6 L-1,6 L-1,8 L-2,8 L-2,12 L-3,12 L-3,13 L-6,13 L-6,12 L-8,12 L-8,13 L-9,13 L-9,14 L-10,14 L-10,16 L-12,16 L-12,14 L-11,14 L-11,13 L-10,13 L-10,12 L-9,12 L-9,11 L-8,11 L-8,10 L-7,10 L-7,9 L-6,9 L-6,6 L-5,6 L-5,5 L-4,5 L-4,4 L-3,4 L-3,3 L-2,3 L-2,2 L-1,2 L-1,1 L0,1 Z " fill="#A4698F" transform="translate(286,251)"/>
<path d="M0,0 L1,0 L1,1 L3,1 L3,2 L4,2 L4,3 L5,3 L5,4 L6,4 L6,5 L7,5 L7,6 L8,6 L8,7 L9,7 L9,8 L10,8 L10,9 L11,9 L11,10 L12,10 L12,11 L13,11 L13,13 L14,13 L14,14 L15,14 L15,16 L14,16 L14,15 L13,15 L13,14 L12,14 L12,16 L13,16 L13,18 L11,18 L11,15 L9,15 L9,14 L8,14 L8,12 L7,12 L7,11 L6,11 L6,10 L4,10 L4,7 L5,7 L5,8 L6,8 L6,6 L5,6 L5,5 L2,5 L2,2 L0,2 Z " fill="#A26B83" transform="translate(241,184)"/>
<path d="M0,0 L2,0 L2,1 L4,1 L4,2 L6,2 L6,3 L7,3 L7,4 L9,4 L9,5 L7,5 L7,6 L6,6 L6,4 L5,4 L5,3 L2,3 L2,2 L1,2 L1,5 L2,5 L2,7 L3,7 L3,8 L4,8 L4,10 L2,10 L2,9 L1,9 L1,10 L0,10 L0,11 L-1,11 L-1,13 L0,13 L0,14 L-2,14 L-2,15 L-1,15 L-1,16 L-3,16 L-3,15 L-5,15 L-5,14 L-6,14 L-6,13 L-9,13 L-9,12 L-12,12 L-12,11 L-8,11 L-8,12 L-5,12 L-5,13 L-3,13 L-3,12 L-2,12 L-2,10 L-1,10 L-1,9 L0,9 L0,7 L-2,7 L-2,6 L-3,6 L-3,4 L-1,4 L-1,3 L0,3 Z " fill="#A16675" transform="translate(256,155)"/>
<path d="M0,0 L24,0 L24,1 L27,1 L27,2 L28,2 L28,3 L29,3 L29,4 L30,4 L30,6 L28,6 L28,5 L26,5 L26,4 L25,4 L25,3 L20,3 L20,2 L15,2 L15,1 L9,1 L9,2 L5,2 L5,3 L0,3 L0,2 L1,2 L1,1 L0,1 Z " fill="#9C676C" transform="translate(302,143)"/>
<path d="M0,0 L1,0 L1,1 L2,1 L2,0 L3,0 L3,1 L6,1 L6,2 L5,2 L5,3 L3,3 L3,5 L2,5 L2,6 L0,6 L0,8 L-1,8 L-1,9 L-2,9 L-2,10 L-4,10 L-4,12 L-5,12 L-5,13 L-6,13 L-6,14 L-8,14 L-8,15 L-9,15 L-9,16 L-11,16 L-11,17 L-14,17 L-14,18 L-16,18 L-16,17 L-15,17 L-15,16 L-14,16 L-14,15 L-11,15 L-11,13 L-7,13 L-7,10 L-5,10 L-5,9 L-7,9 L-7,8 L-2,8 L-2,6 L-3,6 L-3,4 L-1,4 L-1,5 L0,5 Z " fill="#744964" transform="translate(254,252)"/>
<path d="M0,0 L1,0 L1,2 L0,2 L0,3 L3,3 L3,2 L11,2 L11,1 L10,1 L10,0 L16,0 L16,1 L17,1 L17,2 L16,2 L16,3 L18,3 L18,4 L20,4 L20,5 L23,5 L23,6 L24,6 L24,7 L22,7 L22,6 L19,6 L19,5 L15,5 L15,4 L1,4 L1,5 L-2,5 L-2,6 L-4,6 L-4,5 L-3,5 L-3,4 L-1,4 L-1,1 L0,1 Z " fill="#885371" transform="translate(239,214)"/>
<path d="M0,0 L5,0 L5,2 L4,2 L4,9 L5,9 L5,14 L6,14 L6,18 L5,18 L5,24 L4,24 L4,26 L3,26 L3,28 L2,28 L2,24 L3,24 L3,22 L4,22 L4,13 L3,13 L3,11 L2,11 L2,8 L1,8 L1,3 L0,3 Z " fill="#D19296" transform="translate(343,158)"/>
<path d="M0,0 L2,0 L2,4 L0,4 L0,5 L-3,5 L-3,4 L-5,4 L-5,6 L-3,6 L-3,7 L-4,7 L-4,8 L-5,8 L-5,9 L-6,9 L-6,12 L-10,12 L-10,11 L-11,11 L-11,8 L-9,8 L-9,5 L-8,5 L-8,4 L-6,4 L-6,3 L-5,3 L-5,2 L-2,2 L-2,1 L0,1 Z " fill="#A76D90" transform="translate(232,205)"/>
<path d="M0,0 L3,0 L3,1 L5,1 L5,2 L7,2 L7,3 L9,3 L9,4 L10,4 L10,5 L12,5 L12,6 L13,6 L13,7 L14,7 L14,12 L15,12 L15,13 L12,13 L12,12 L11,12 L11,11 L10,11 L10,10 L8,10 L8,8 L9,8 L9,5 L4,5 L4,4 L5,4 L5,3 L3,3 L3,4 L-1,4 L-1,3 L0,3 L0,2 L1,2 L1,1 L0,1 Z " fill="#CD8C8D" transform="translate(329,132)"/>
<path d="M0,0 L2,0 L2,1 L3,1 L3,2 L4,2 L4,3 L6,3 L6,4 L7,4 L7,5 L8,5 L8,7 L9,7 L9,8 L10,8 L10,9 L8,9 L8,8 L7,8 L7,10 L5,10 L5,11 L7,11 L7,13 L4,13 L4,14 L0,14 L0,12 L1,12 L1,13 L2,13 L2,7 L3,7 L3,6 L5,6 L5,7 L4,7 L4,9 L5,9 L5,8 L6,8 L6,5 L5,5 L5,4 L0,4 L0,3 L-1,3 L-1,2 L0,2 Z " fill="#DB8F8C" transform="translate(374,156)"/>
<path d="M0,0 L1,0 L1,2 L2,2 L2,6 L3,6 L3,18 L2,18 L2,22 L1,22 L1,25 L0,25 L0,27 L-1,27 L-1,30 L-2,30 L-2,31 L-3,31 L-3,27 L-4,27 L-4,26 L-3,26 L-3,25 L-1,25 L-1,23 L0,23 L0,20 L1,20 L1,4 L0,4 Z " fill="#7B4C55" transform="translate(306,157)"/>
<path d="M0,0 L4,0 L4,2 L2,2 L2,3 L-3,3 L-3,4 L-5,4 L-5,5 L-4,5 L-4,7 L-5,7 L-5,8 L-11,8 L-11,9 L-13,9 L-13,10 L-14,10 L-14,11 L-15,11 L-15,12 L-16,12 L-16,13 L-17,13 L-17,11 L-16,11 L-16,10 L-15,10 L-15,9 L-14,9 L-14,8 L-13,8 L-13,7 L-11,7 L-11,6 L-10,6 L-10,5 L-9,5 L-9,4 L-7,4 L-7,3 L-5,3 L-5,2 L-3,2 L-3,1 L0,1 Z " fill="#926573" transform="translate(224,152)"/>
<path d="M0,0 L16,0 L16,1 L19,1 L19,2 L21,2 L21,3 L24,3 L24,4 L25,4 L25,5 L23,5 L23,4 L19,4 L19,3 L17,3 L17,2 L5,2 L5,3 L-2,3 L-2,2 L-1,2 L-1,1 L0,1 Z " fill="#9C647B" transform="translate(215,179)"/>
<path d="M0,0 L1,0 L1,2 L3,2 L3,3 L2,3 L2,4 L1,4 L1,6 L0,6 L0,7 L-1,7 L-1,8 L-2,8 L-2,9 L-3,9 L-3,10 L-4,10 L-4,11 L-5,11 L-5,12 L-6,12 L-6,13 L-7,13 L-7,14 L-8,14 L-8,15 L-9,15 L-9,16 L-10,16 L-10,12 L-9,12 L-9,11 L-8,11 L-8,10 L-9,10 L-9,9 L-8,9 L-8,8 L-4,8 L-4,5 L0,5 Z " fill="#7F4B71" transform="translate(282,271)"/>
<path d="M0,0 L1,0 L1,1 L2,1 L2,2 L3,2 L3,3 L5,3 L5,5 L7,5 L7,6 L8,6 L8,7 L6,7 L6,8 L0,8 L0,9 L-2,9 L-2,8 L-3,8 L-3,5 L-2,5 L-2,3 L0,3 L0,4 L1,4 L1,2 L0,2 Z " fill="#A46984" transform="translate(289,223)"/>
<path d="M0,0 L1,0 L1,6 L3,6 L3,7 L2,7 L2,9 L1,9 L1,11 L0,11 L0,12 L-1,12 L-1,13 L-2,13 L-2,15 L-1,15 L-1,17 L0,17 L0,18 L-2,18 L-2,17 L-3,17 L-3,15 L-4,15 L-4,11 L-1,11 L-1,6 L-2,6 L-2,5 L-3,5 L-3,4 L-4,4 L-4,1 L-2,1 L-2,3 L0,3 Z " fill="#BC7889" transform="translate(300,182)"/>
<path d="M0,0 L1,0 L1,2 L0,2 L0,4 L-1,4 L-1,6 L1,6 L1,7 L-1,7 L-1,8 L-4,8 L-4,11 L-5,11 L-5,14 L-6,14 L-6,16 L-7,16 L-7,18 L-9,18 L-9,17 L-10,17 L-10,15 L-11,15 L-11,14 L-12,14 L-12,13 L-13,13 L-13,11 L-12,11 L-12,12 L-11,12 L-11,13 L-10,13 L-10,14 L-9,14 L-9,15 L-8,15 L-8,14 L-7,14 L-7,12 L-6,12 L-6,9 L-5,9 L-5,7 L-4,7 L-4,5 L-3,5 L-3,4 L-2,4 L-2,2 L-1,2 L-1,1 L0,1 Z " fill="#794B67" transform="translate(216,217)"/>
<path d="M0,0 L1,0 L1,12 L0,12 L0,13 L-3,13 L-3,14 L-10,14 L-10,15 L-13,15 L-13,16 L-14,16 L-14,17 L-15,17 L-15,15 L-14,15 L-14,14 L-12,14 L-12,13 L-6,13 L-6,12 L-8,12 L-8,10 L-2,10 L-2,11 L0,11 Z " fill="#865072" transform="translate(275,236)"/>
<path d="M0,0 L2,0 L2,5 L3,5 L3,7 L5,7 L5,6 L4,6 L4,4 L7,4 L7,5 L8,5 L8,8 L6,8 L6,10 L7,10 L7,11 L9,11 L9,12 L10,12 L10,13 L8,13 L8,12 L6,12 L6,11 L5,11 L5,10 L4,10 L4,9 L3,9 L3,8 L2,8 L2,7 L1,7 L1,6 L0,6 L0,5 L-1,5 L-1,3 L-2,3 L-2,2 L-3,2 L-3,1 L-1,1 L-1,2 L1,2 L1,1 L0,1 Z " fill="#996679" transform="translate(287,202)"/>
<path d="M0,0 L5,0 L5,1 L7,1 L7,2 L9,2 L9,3 L12,3 L12,4 L14,4 L14,5 L15,5 L15,4 L17,4 L17,6 L12,6 L12,5 L10,5 L10,6 L9,6 L9,7 L8,7 L8,6 L5,6 L5,5 L2,5 L2,4 L1,4 L1,3 L3,3 L3,4 L6,4 L6,3 L5,3 L5,2 L1,2 L1,1 L0,1 Z " fill="#A36F73" transform="translate(276,131)"/>
<path d="M0,0 L6,0 L6,1 L7,1 L7,2 L11,2 L11,3 L12,3 L12,4 L9,4 L9,3 L7,3 L7,4 L5,4 L5,5 L4,5 L4,3 L3,3 L3,5 L2,5 L2,4 L0,4 L0,2 L-3,2 L-3,3 L-8,3 L-8,1 L0,1 Z " fill="#D19097" transform="translate(270,131)"/>
<path d="M0,0 L2,0 L2,1 L1,1 L1,2 L0,2 L0,3 L-2,3 L-2,4 L-3,4 L-3,5 L-5,5 L-5,6 L-8,6 L-8,7 L-10,7 L-10,8 L-12,8 L-12,9 L-14,9 L-14,11 L-15,11 L-15,13 L-16,13 L-16,10 L-15,10 L-15,7 L-12,7 L-12,5 L-6,5 L-6,4 L-5,4 L-5,3 L-7,3 L-7,4 L-10,4 L-10,3 L-9,3 L-9,2 L-7,2 L-7,1 L-6,1 L-6,2 L-1,2 L-1,1 L0,1 Z " fill="#96626D" transform="translate(377,216)"/>
<path d="M0,0 L1,0 L1,4 L0,4 L0,5 L-1,5 L-1,7 L-2,7 L-2,9 L-1,9 L-1,11 L-2,11 L-2,13 L-5,13 L-5,14 L-6,14 L-6,15 L-7,15 L-7,16 L-8,16 L-8,17 L-9,17 L-9,15 L-8,15 L-8,13 L-7,13 L-7,11 L-6,11 L-6,9 L-5,9 L-5,8 L-4,8 L-4,7 L-3,7 L-3,6 L-2,6 L-2,3 L-1,3 L-1,1 L0,1 Z " fill="#C28896" transform="translate(343,185)"/>
<path d="M0,0 L5,0 L5,1 L6,1 L6,2 L3,2 L3,1 L2,1 L2,19 L1,19 L1,24 L0,24 L0,27 L-1,27 L-1,18 L0,18 L0,14 L1,14 L1,2 L0,2 Z " fill="#7F5257" transform="translate(358,164)"/>
<path d="M0,0 L2,0 L2,1 L7,1 L7,2 L5,2 L5,3 L6,3 L6,4 L10,4 L10,5 L9,5 L9,6 L10,6 L10,7 L11,7 L11,8 L15,8 L15,7 L13,7 L13,6 L16,6 L16,7 L17,7 L17,8 L18,8 L18,9 L16,9 L16,10 L17,10 L17,11 L15,11 L15,10 L12,10 L12,9 L10,9 L10,8 L9,8 L9,7 L8,7 L8,6 L6,6 L6,5 L5,5 L5,4 L4,4 L4,3 L2,3 L2,2 L1,2 L1,1 L0,1 Z " fill="#8E566B" transform="translate(285,238)"/>
<path d="M0,0 L1,0 L1,11 L3,11 L3,9 L5,9 L5,10 L4,10 L4,20 L5,20 L5,21 L8,21 L8,23 L4,23 L4,21 L3,21 L3,17 L2,17 L2,13 L1,13 L1,12 L0,12 L0,2 L-1,2 L-1,1 L0,1 Z " fill="#8C5484" transform="translate(247,279)"/>
<path d="M0,0 L1,0 L1,1 L2,1 L2,4 L4,4 L4,5 L3,5 L3,6 L1,6 L1,7 L2,7 L2,8 L4,8 L4,9 L7,9 L7,11 L5,11 L5,10 L2,10 L2,9 L0,9 L0,8 L-2,8 L-2,7 L-3,7 L-3,6 L-10,6 L-10,5 L-2,5 L-2,6 L-1,6 L-1,4 L0,4 Z " fill="#9C6476" transform="translate(333,213)"/>
<path d="M0,0 L1,0 L1,5 L2,5 L2,17 L1,17 L1,21 L0,21 L0,23 L-1,23 L-1,26 L-2,26 L-2,27 L-4,27 L-4,25 L-3,25 L-3,23 L-2,23 L-2,22 L-1,22 L-1,19 L0,19 L0,16 L1,16 L1,9 L0,9 L0,5 L-1,5 L-1,2 L0,2 Z " fill="#996B74" transform="translate(293,157)"/>
<path d="M0,0 L1,0 L1,1 L2,1 L2,3 L3,3 L3,4 L6,4 L6,5 L8,5 L8,6 L10,6 L10,7 L13,7 L13,8 L15,8 L15,9 L16,9 L16,10 L18,10 L18,11 L20,11 L20,12 L15,12 L15,10 L14,10 L14,9 L12,9 L12,8 L10,8 L10,9 L9,9 L9,7 L6,7 L6,6 L1,6 L1,4 L0,4 Z " fill="#7B4E62" transform="translate(256,200)"/>
<path d="M0,0 L1,0 L1,1 L3,1 L3,3 L4,3 L4,7 L6,7 L6,10 L7,10 L7,11 L8,11 L8,12 L9,12 L9,13 L11,13 L11,17 L10,17 L10,16 L9,16 L9,15 L8,15 L8,14 L7,14 L7,12 L6,12 L6,11 L5,11 L5,10 L4,10 L4,8 L3,8 L3,7 L2,7 L2,5 L1,5 L1,4 L0,4 Z " fill="#A56B7D" transform="translate(273,186)"/>
<path d="M0,0 L2,0 L2,1 L6,1 L6,2 L4,2 L4,3 L3,3 L3,4 L1,4 L1,5 L0,5 L0,6 L-2,6 L-2,7 L-4,7 L-4,8 L-7,8 L-7,7 L-5,7 L-5,6 L-3,6 L-3,5 L-1,5 L-1,3 L-3,3 L-3,4 L-7,4 L-7,2 L0,2 Z " fill="#905770" transform="translate(343,242)"/>
<path d="M0,0 L2,0 L2,2 L4,2 L4,3 L3,3 L3,4 L2,4 L2,6 L1,6 L1,7 L0,7 L0,8 L-1,8 L-1,9 L-2,9 L-2,10 L-3,10 L-3,11 L-4,11 L-4,12 L-5,12 L-5,13 L-6,13 L-6,11 L-5,11 L-5,10 L-6,10 L-6,8 L-3,8 L-3,4 L-2,4 L-2,7 L-1,7 L-1,4 L0,4 L0,3 L1,3 L1,2 L0,2 Z " fill="#A06976" transform="translate(355,230)"/>
<path d="M0,0 L2,0 L2,2 L1,2 L1,5 L0,5 L0,6 L-1,6 L-1,8 L-2,8 L-2,9 L-3,9 L-3,10 L-4,10 L-4,9 L-5,9 L-5,6 L-6,6 L-6,9 L-7,9 L-7,5 L-6,5 L-6,3 L-5,3 L-5,4 L-4,4 L-4,3 L-3,3 L-3,6 L-2,6 L-2,4 L-1,4 L-1,1 L0,1 Z " fill="#C3878F" transform="translate(355,191)"/>
<path d="M0,0 L1,0 L1,2 L0,2 L0,3 L-1,3 L-1,4 L1,4 L1,5 L-2,5 L-2,11 L-3,11 L-3,8 L-5,8 L-5,9 L-6,9 L-6,11 L-10,11 L-10,10 L-9,10 L-9,9 L-8,9 L-8,8 L-7,8 L-7,7 L-6,7 L-6,6 L-5,6 L-5,5 L-4,5 L-4,4 L-3,4 L-3,3 L-2,3 L-2,2 L-1,2 L-1,1 L0,1 Z " fill="#845673" transform="translate(247,244)"/>
<path d="M0,0 L4,0 L4,1 L1,1 L1,3 L-2,3 L-2,5 L-3,5 L-3,6 L-5,6 L-5,7 L-7,7 L-7,8 L-11,8 L-11,7 L-10,7 L-10,6 L-9,6 L-9,5 L-8,5 L-8,4 L-5,4 L-5,3 L-4,3 L-4,2 L-3,2 L-3,1 L0,1 Z " fill="#81576D" transform="translate(259,236)"/>
<path d="M0,0 L1,0 L1,1 L3,1 L3,2 L4,2 L4,3 L6,3 L6,4 L7,4 L7,5 L5,5 L5,4 L3,4 L3,3 L2,3 L2,6 L1,6 L1,7 L0,7 L0,8 L-3,8 L-3,7 L-5,7 L-5,4 L-6,4 L-6,2 L-4,2 L-4,4 L-3,4 L-3,5 L-2,5 L-2,6 L-1,6 L-1,4 L1,4 L1,2 L0,2 Z " fill="#A0627F" transform="translate(297,230)"/>
<path d="M0,0 L2,0 L2,1 L1,1 L1,2 L5,2 L5,1 L17,1 L17,2 L18,2 L18,3 L14,3 L14,2 L6,2 L6,3 L3,3 L3,4 L1,4 L1,5 L0,5 L0,6 L-2,6 L-2,2 L0,2 Z " fill="#8B5971" transform="translate(211,191)"/>
<path d="M0,0 L3,0 L3,1 L4,1 L4,2 L7,2 L7,3 L8,3 L8,4 L9,4 L9,5 L10,5 L10,7 L9,7 L9,9 L10,9 L10,11 L9,11 L9,10 L8,10 L8,8 L7,8 L7,7 L6,7 L6,6 L5,6 L5,5 L4,5 L4,4 L3,4 L3,3 L2,3 L2,2 L0,2 Z " fill="#A97A78" transform="translate(364,165)"/>
<path d="M0,0 L1,0 L1,2 L2,2 L2,3 L3,3 L3,5 L4,5 L4,7 L5,7 L5,10 L6,10 L6,14 L5,14 L5,11 L4,11 L4,12 L3,12 L3,10 L2,10 L2,8 L0,8 Z " fill="#9B6E6E" transform="translate(384,165)"/>
<path d="M0,0 L2,0 L2,1 L3,1 L3,4 L4,4 L4,5 L5,5 L5,8 L6,8 L6,7 L7,7 L7,9 L6,9 L6,12 L7,12 L7,15 L6,15 L6,14 L5,14 L5,12 L4,12 L4,10 L3,10 L3,8 L2,8 L2,3 L1,3 L1,1 L0,1 Z " fill="#6B4362" transform="translate(205,249)"/>
<path d="M0,0 L6,0 L6,6 L8,6 L8,5 L9,5 L9,4 L11,4 L11,5 L12,5 L12,6 L9,6 L9,7 L8,7 L8,10 L7,10 L7,8 L6,8 L6,7 L5,7 L5,5 L4,5 L4,4 L3,4 L3,3 L2,3 L2,2 L1,2 L1,1 L0,1 Z " fill="#A67079" transform="translate(284,149)"/>
<path d="M0,0 L11,0 L11,2 L7,2 L7,3 L-1,3 L-1,4 L-3,4 L-3,2 L0,2 Z " fill="#986281" transform="translate(263,235)"/>
<path d="M0,0 L7,0 L7,2 L6,2 L6,3 L8,3 L8,4 L7,4 L7,5 L6,5 L6,6 L5,6 L5,8 L4,8 L4,10 L2,10 L2,8 L3,8 L3,7 L1,7 L1,6 L2,6 L2,5 L3,5 L3,4 L4,4 L4,3 L5,3 L5,2 L3,2 L3,1 L0,1 Z " fill="#A16576" transform="translate(340,224)"/>
<path d="M0,0 L1,0 L1,1 L2,1 L2,2 L4,2 L4,3 L5,3 L5,4 L6,4 L6,5 L7,5 L7,6 L9,6 L9,7 L10,7 L10,8 L11,8 L11,9 L12,9 L12,10 L13,10 L13,11 L11,11 L11,10 L10,10 L10,9 L9,9 L9,8 L8,8 L8,7 L2,7 L2,4 L1,4 L1,2 L0,2 Z " fill="#936073" transform="translate(276,212)"/>
<path d="M0,0 L1,0 L1,5 L0,5 L0,13 L-1,13 L-1,14 L-2,14 L-2,21 L-3,21 L-3,10 L-2,10 L-2,6 L-1,6 L-1,3 L0,3 Z " fill="#532D48" transform="translate(188,200)"/>
<path d="M0,0 L1,0 L1,6 L0,6 L0,7 L-1,7 L-1,10 L-2,10 L-2,11 L-1,11 L-1,12 L-2,12 L-2,13 L-3,13 L-3,11 L-4,11 L-4,12 L-6,12 L-6,13 L-7,13 L-7,14 L-9,14 L-9,13 L-8,13 L-8,12 L-7,12 L-7,11 L-6,11 L-6,10 L-5,10 L-5,9 L-4,9 L-4,8 L-3,8 L-3,7 L-2,7 L-2,6 L-1,6 L-1,3 L0,3 Z " fill="#8F5863" transform="translate(375,194)"/>
<path d="M0,0 L1,0 L1,5 L0,5 L0,13 L-1,13 L-1,14 L-2,14 L-2,15 L-3,15 L-3,16 L-4,16 L-4,17 L-5,17 L-5,18 L-6,18 L-6,20 L-7,20 L-7,21 L-8,21 L-8,19 L-7,19 L-7,17 L-6,17 L-6,16 L-5,16 L-5,15 L-4,15 L-4,14 L-3,14 L-3,12 L-2,12 L-2,8 L-1,8 L-1,4 L0,4 Z " fill="#664459" transform="translate(199,176)"/>
<path d="M0,0 L1,0 L1,1 L2,1 L2,2 L3,2 L3,3 L5,3 L5,4 L7,4 L7,5 L19,5 L19,4 L22,4 L22,6 L4,6 L4,5 L3,5 L3,4 L2,4 L2,3 L1,3 L1,2 L0,2 Z " fill="#744759" transform="translate(301,200)"/>
<path d="M0,0 L3,0 L3,2 L6,2 L6,3 L9,3 L9,4 L8,4 L8,5 L1,5 L1,4 L-1,4 L-1,2 L-2,2 L-2,1 L0,1 Z " fill="#A06783" transform="translate(303,246)"/>
<path d="M0,0 L2,0 L2,1 L3,1 L3,2 L4,2 L4,3 L7,3 L7,2 L8,2 L8,1 L10,1 L10,2 L12,2 L12,4 L10,4 L10,5 L11,5 L11,7 L10,7 L10,6 L7,6 L7,5 L5,5 L5,4 L3,4 L3,3 L2,3 L2,2 L1,2 L1,1 L0,1 Z " fill="#854976" transform="translate(197,243)"/>
<path d="M0,0 L1,0 L1,3 L2,3 L2,5 L3,5 L3,14 L2,14 L2,16 L1,16 L1,18 L0,18 L0,13 L1,13 L1,5 L0,5 Z " fill="#91666F" transform="translate(344,166)"/>
<path d="M0,0 L1,0 L1,2 L0,2 L0,3 L-1,3 L-1,8 L-2,8 L-2,9 L-3,9 L-3,10 L-4,10 L-4,14 L-6,14 L-6,9 L-5,9 L-5,7 L-4,7 L-4,6 L-3,6 L-3,3 L-2,3 L-2,2 L-1,2 L-1,1 L0,1 Z " fill="#926177" transform="translate(206,165)"/>
<path d="M0,0 L2,0 L2,1 L1,1 L1,2 L0,2 L0,3 L-2,3 L-2,4 L0,4 L0,5 L-7,5 L-7,4 L-17,4 L-17,3 L-4,3 L-4,2 L-1,2 L-1,1 L0,1 Z " fill="#844E5B" transform="translate(364,208)"/>
<path d="M0,0 L6,0 L6,1 L4,1 L4,2 L3,2 L3,3 L2,3 L2,4 L1,4 L1,5 L0,5 L0,6 L-1,6 L-1,7 L-2,7 L-2,8 L-3,8 L-3,4 L-1,4 L-1,3 L-2,3 L-2,2 L-1,2 L-1,1 L0,1 Z " fill="#895774" transform="translate(288,265)"/>
<path d="M0,0 L2,0 L2,4 L0,4 L0,5 L-3,5 L-3,4 L-5,4 L-5,5 L-7,5 L-7,6 L-9,6 L-9,5 L-8,5 L-8,4 L-6,4 L-6,3 L-5,3 L-5,2 L-2,2 L-2,1 L0,1 Z " fill="#895A72" transform="translate(232,205)"/>
<path d="M0,0 L1,0 L1,5 L2,5 L2,8 L4,8 L4,7 L5,7 L5,6 L6,6 L6,5 L7,5 L7,4 L8,4 L8,8 L5,8 L5,9 L4,9 L4,10 L3,10 L3,11 L1,11 L1,6 L0,6 Z " fill="#5E4058" transform="translate(257,269)"/>
<path d="M0,0 L1,0 L1,2 L-1,2 L-1,3 L-2,3 L-2,5 L-1,5 L-1,4 L1,4 L1,6 L2,6 L2,9 L0,9 L0,8 L-3,8 L-3,5 L-4,5 L-4,3 L-3,3 L-3,2 L-2,2 L-2,1 L0,1 Z " fill="#AA6D86" transform="translate(340,231)"/>
<path d="M0,0 L1,0 L1,1 L4,1 L4,2 L5,2 L5,4 L6,4 L6,3 L8,3 L8,5 L10,5 L10,6 L11,6 L11,9 L9,9 L9,7 L8,7 L8,6 L7,6 L7,5 L4,5 L4,4 L2,4 L2,2 L1,2 L1,3 L0,3 Z " fill="#C98B9C" transform="translate(257,157)"/>
<path d="M0,0 L2,0 L2,1 L3,1 L3,2 L4,2 L4,3 L6,3 L6,4 L7,4 L7,5 L8,5 L8,7 L9,7 L9,8 L10,8 L10,9 L8,9 L8,8 L7,8 L7,9 L6,9 L6,5 L5,5 L5,4 L0,4 L0,3 L-1,3 L-1,2 L0,2 Z " fill="#A67475" transform="translate(374,156)"/>
<path d="M0,0 L15,0 L15,1 L9,1 L9,2 L5,2 L5,3 L0,3 L0,2 L1,2 L1,1 L0,1 Z " fill="#996064" transform="translate(302,143)"/>
<path d="M0,0 L3,0 L3,1 L5,1 L5,2 L7,2 L7,3 L9,3 L9,4 L10,4 L10,5 L4,5 L4,4 L5,4 L5,3 L3,3 L3,4 L-1,4 L-1,3 L0,3 L0,2 L1,2 L1,1 L0,1 Z " fill="#A36F70" transform="translate(329,132)"/>
<path d="M0,0 L7,0 L7,1 L8,1 L8,2 L6,2 L6,1 L1,1 L1,3 L2,3 L2,4 L1,4 L1,6 L0,6 L0,4 L-2,4 L-2,5 L-3,5 L-3,6 L-4,6 L-4,7 L-6,7 L-6,6 L-5,6 L-5,5 L-4,5 L-4,4 L-3,4 L-3,3 L-2,3 L-2,2 L-1,2 L-1,1 L0,1 Z " fill="#734961" transform="translate(286,251)"/>
<path d="M0,0 L4,0 L4,1 L8,1 L8,4 L10,4 L10,6 L11,6 L11,7 L12,7 L12,8 L10,8 L10,7 L9,7 L9,6 L8,6 L8,5 L6,5 L6,4 L5,4 L5,3 L4,3 L4,2 L2,2 L2,1 L0,1 Z " fill="#7C4B5D" transform="translate(263,221)"/>
<path d="M0,0 L3,0 L3,1 L5,1 L5,2 L7,2 L7,3 L9,3 L9,4 L11,4 L11,5 L12,5 L12,6 L10,6 L10,5 L8,5 L8,4 L2,4 L2,3 L1,3 L1,2 L0,2 Z " fill="#9B6B6D" transform="translate(362,150)"/>
<path d="M0,0 L2,0 L2,3 L1,3 L1,4 L-1,4 L-1,5 L-2,5 L-2,6 L-4,6 L-4,7 L-7,7 L-7,8 L-9,8 L-9,7 L-8,7 L-8,6 L-7,6 L-7,5 L-4,5 L-4,3 L0,3 Z " fill="#6A3D5F" transform="translate(247,262)"/>
<path d="M0,0 L2,0 L2,1 L6,1 L6,4 L10,4 L10,5 L9,5 L9,6 L10,6 L10,7 L8,7 L8,6 L6,6 L6,5 L4,5 L4,4 L3,4 L3,3 L2,3 L2,2 L1,2 L1,1 L0,1 Z " fill="#77486A" transform="translate(212,264)"/>
<path d="M0,0 L2,0 L2,2 L4,2 L4,4 L6,4 L6,8 L7,8 L7,10 L6,10 L6,9 L5,9 L5,7 L3,7 L3,5 L2,5 L2,3 L1,3 L1,2 L0,2 Z " fill="#714966" transform="translate(190,233)"/>
<path d="M0,0 L2,0 L2,2 L0,2 L0,5 L1,5 L1,7 L-2,7 L-2,8 L-3,8 L-3,6 L-4,6 L-4,4 L-3,4 L-3,3 L-1,3 L-1,1 L0,1 Z " fill="#7B5068" transform="translate(221,211)"/>
<path d="M0,0 L1,0 L1,1 L4,1 L4,2 L3,2 L3,3 L2,3 L2,4 L1,4 L1,5 L0,5 L0,7 L-1,7 L-1,8 L-2,8 L-2,11 L-3,11 L-3,7 L-2,7 L-2,6 L-1,6 L-1,2 L0,2 Z " fill="#834F67" transform="translate(205,196)"/>
<path d="M0,0 L1,0 L1,4 L0,4 L0,5 L-1,5 L-1,7 L-2,7 L-2,8 L-3,8 L-3,9 L-4,9 L-4,10 L-5,10 L-5,12 L-7,12 L-7,11 L-6,11 L-6,9 L-5,9 L-5,8 L-4,8 L-4,7 L-3,7 L-3,6 L-2,6 L-2,3 L-1,3 L-1,1 L0,1 Z " fill="#704A59" transform="translate(343,185)"/>
<path d="M0,0 L4,0 L4,2 L2,2 L2,3 L-3,3 L-3,4 L-7,4 L-7,3 L-5,3 L-5,2 L-3,2 L-3,1 L0,1 Z " fill="#865B6D" transform="translate(224,152)"/>
<path d="M0,0 L3,0 L3,1 L6,1 L6,2 L8,2 L8,6 L7,6 L7,5 L5,5 L5,4 L3,4 L3,2 L1,2 L1,1 L0,1 Z " fill="#AC767D" transform="translate(275,143)"/>
<path d="M0,0 L1,0 L1,1 L2,1 L2,3 L4,3 L4,4 L5,4 L5,5 L6,5 L6,7 L3,7 L3,6 L1,6 L1,5 L0,5 Z " fill="#A56D70" transform="translate(343,139)"/>
<path d="M0,0 L1,0 L1,2 L2,2 L2,4 L1,4 L1,5 L0,5 L0,8 L-3,8 L-3,6 L-2,6 L-2,5 L-4,5 L-4,4 L0,4 L0,3 L-1,3 L-1,1 L0,1 Z " fill="#A66674" transform="translate(345,203)"/>
<path d="M0,0 L1,0 L1,3 L0,3 L0,4 L-2,4 L-2,6 L-3,6 L-3,7 L-4,7 L-4,9 L-6,9 L-6,11 L-7,11 L-7,8 L-5,8 L-5,6 L-4,6 L-4,4 L-3,4 L-3,3 L-2,3 L-2,2 L-1,2 L-1,1 L0,1 Z " fill="#C68B9A" transform="translate(245,140)"/>
<path d="M0,0 L2,0 L2,1 L1,1 L1,2 L-1,2 L-1,3 L-2,3 L-2,4 L-4,4 L-4,5 L-5,5 L-5,6 L-8,6 L-8,5 L-7,5 L-7,4 L-6,4 L-6,2 L-2,2 L-2,1 L0,1 Z " fill="#9E6A8D" transform="translate(254,242)"/>
<path d="M0,0 L1,0 L1,2 L3,2 L3,4 L4,4 L4,6 L2,6 L2,7 L0,7 L0,3 L-1,3 L-1,1 L0,1 Z " fill="#915977" transform="translate(199,221)"/>
<path d="M0,0 L2,0 L2,1 L1,1 L1,2 L2,2 L2,3 L1,3 L1,4 L2,4 L2,5 L4,5 L4,7 L2,7 L2,6 L0,6 L0,5 L-2,5 L-2,4 L-3,4 L-3,3 L0,3 L0,2 L-1,2 L-1,1 L0,1 Z " fill="#936275" transform="translate(300,212)"/>
<path d="M0,0 L2,0 L2,1 L3,1 L3,3 L0,3 L0,4 L-4,4 L-4,3 L-6,3 L-6,2 L-2,2 L-2,1 L0,1 Z " fill="#895166" transform="translate(240,202)"/>
<path d="M0,0 L1,0 L1,1 L2,1 L2,2 L3,2 L3,3 L4,3 L4,5 L5,5 L5,6 L6,6 L6,8 L5,8 L5,7 L4,7 L4,6 L2,6 L2,5 L0,5 Z " fill="#8C6476" transform="translate(250,192)"/>
<path d="M0,0 L2,0 L2,3 L1,3 L1,5 L-1,5 L-1,6 L-4,6 L-4,5 L-3,5 L-3,3 L-2,3 L-2,2 L-1,2 L-1,1 L0,1 Z " fill="#A76D8B" transform="translate(196,191)"/>
<path d="M0,0 L1,0 L1,1 L2,1 L2,2 L3,2 L3,3 L4,3 L4,5 L6,5 L6,7 L2,7 L2,6 L1,6 L1,2 L0,2 Z " fill="#9F6370" transform="translate(283,179)"/>
<path d="M0,0 L4,0 L4,1 L6,1 L6,4 L8,4 L8,7 L7,7 L7,6 L6,6 L6,5 L5,5 L5,4 L4,4 L4,3 L3,3 L3,2 L1,2 L1,1 L0,1 Z " fill="#734854" transform="translate(255,171)"/>
<path d="M0,0 L1,0 L1,1 L3,1 L3,2 L4,2 L4,3 L5,3 L5,4 L6,4 L6,5 L7,5 L7,6 L8,6 L8,7 L9,7 L9,8 L7,8 L7,7 L4,7 L4,5 L3,5 L3,3 L2,3 L2,2 L0,2 Z " fill="#8F5F6B" transform="translate(265,160)"/>
<path d="M0,0 L11,0 L11,1 L2,1 L2,2 L4,2 L4,3 L0,3 L0,2 L-2,2 L-2,1 L0,1 Z " fill="#B77989" transform="translate(308,206)"/>
<path d="M0,0 L2,0 L2,1 L4,1 L4,5 L5,5 L5,10 L4,10 L4,7 L3,7 L3,5 L2,5 L2,3 L1,3 L1,1 L0,1 Z " fill="#8E5F63" transform="translate(339,156)"/>
<path d="M0,0 L2,0 L2,1 L6,1 L6,4 L7,4 L7,7 L6,7 L6,6 L5,6 L5,4 L3,4 L3,3 L2,3 L2,2 L1,2 L1,1 L0,1 Z " fill="#966568" transform="translate(332,149)"/>
<path d="M0,0 L1,0 L1,2 L2,2 L2,1 L4,1 L4,2 L3,2 L3,3 L1,3 L1,4 L-1,4 L-1,5 L-3,5 L-3,7 L-4,7 L-4,3 L-1,3 L-1,1 L0,1 Z " fill="#926168" transform="translate(257,145)"/>
<path d="M0,0 L1,0 L1,1 L2,1 L2,3 L3,3 L3,8 L2,8 L2,9 L1,9 L1,10 L-1,10 L-1,7 L2,7 L2,4 L1,4 L1,2 L0,2 Z " fill="#684354" transform="translate(295,254)"/>
<path d="M0,0 L3,0 L3,1 L4,1 L4,2 L5,2 L5,3 L3,3 L3,4 L4,4 L4,5 L2,5 L2,4 L-1,4 L-1,3 L-2,3 L-2,2 L2,2 L2,1 L0,1 Z " fill="#955C78" transform="translate(298,244)"/>
<path d="M0,0 L2,0 L2,1 L1,1 L1,2 L2,2 L2,4 L1,4 L1,7 L0,7 L0,6 L-1,6 L-1,5 L-2,5 L-2,4 L-3,4 L-3,3 L-1,3 L-1,1 L0,1 Z " fill="#9D5F7C" transform="translate(278,226)"/>
<path d="M0,0 L2,0 L2,1 L3,1 L3,2 L4,2 L4,3 L5,3 L5,4 L7,4 L7,8 L6,8 L6,7 L5,7 L5,6 L4,6 L4,5 L3,5 L3,3 L2,3 L2,2 L1,2 L1,1 L0,1 Z " fill="#6E4D58" transform="translate(277,195)"/>
<path d="M0,0 L2,0 L2,2 L1,2 L1,5 L0,5 L0,6 L-1,6 L-1,8 L-2,8 L-2,9 L-3,9 L-3,7 L-2,7 L-2,4 L-1,4 L-1,1 L0,1 Z " fill="#855C60" transform="translate(355,191)"/>
<path d="M0,0 L1,0 L1,4 L0,4 L0,6 L-1,6 L-1,9 L-2,9 L-2,10 L-4,10 L-4,8 L-3,8 L-3,6 L-2,6 L-2,5 L-1,5 L-1,2 L0,2 Z " fill="#73535D" transform="translate(293,174)"/>
<path d="M0,0 L1,0 L1,1 L2,1 L2,3 L3,3 L3,6 L4,6 L4,9 L3,9 L3,7 L2,7 L2,6 L0,6 Z " fill="#915F62" transform="translate(302,148)"/>
<path d="M0,0 L2,0 L2,1 L5,1 L5,2 L1,2 L1,3 L-1,3 L-1,2 L-8,2 L-8,1 L0,1 Z " fill="#915B85" transform="translate(233,257)"/>
<path d="M0,0 L1,0 L1,2 L0,2 L0,3 L-1,3 L-1,5 L-2,5 L-2,7 L-6,7 L-6,6 L-5,6 L-5,5 L-4,5 L-4,4 L-3,4 L-3,3 L-2,3 L-2,2 L-1,2 L-1,1 L0,1 Z " fill="#694660" transform="translate(243,248)"/>
<path d="M0,0 L2,0 L2,1 L1,1 L1,2 L-1,2 L-1,3 L-2,3 L-2,4 L-3,4 L-3,5 L-4,5 L-4,6 L-5,6 L-5,7 L-6,7 L-6,3 L-3,3 L-3,2 L-2,2 L-2,1 L0,1 Z " fill="#70435A" transform="translate(233,220)"/>
<path d="M0,0 L4,0 L4,1 L3,1 L3,2 L2,2 L2,4 L3,4 L3,6 L4,6 L4,7 L2,7 L2,6 L1,6 L1,4 L0,4 Z " fill="#965966" transform="translate(296,193)"/>
</svg>
